<?xml version="1.0" encoding="UTF-8" standalone="no"?>
<!DOCTYPE svg PUBLIC "-//W3C//DTD SVG 1.1//EN"
 "http://www.w3.org/Graphics/SVG/1.1/DTD/svg11.dtd">
<!-- Generated by graphviz version 2.43.0 (0)
 -->
<!-- Title: vllm_rust_frontend Pages: 1 -->
<svg width="1054pt" height="1750pt"
 viewBox="0.00 0.00 1054.32 1750.00" xmlns="http://www.w3.org/2000/svg" xmlns:xlink="http://www.w3.org/1999/xlink">
<g id="graph0" class="graph" transform="scale(1 1) rotate(0) translate(18 1732)">
<title>vllm_rust_frontend</title>
<polygon fill="white" stroke="transparent" points="-18,18 -18,-1732 1036.32,-1732 1036.32,18 -18,18"/>
<text text-anchor="middle" x="509.16" y="-1695.6" font-family="Helvetica,sans-Serif" font-size="18.00">vLLM Rust Frontend (rust/src) — crates and the Python modules they replace</text>
<g id="clust4" class="cluster">
<title>cluster_pycore</title>
<path fill="white" stroke="#3c7a4a" d="M170.5,-504C170.5,-504 565.5,-504 565.5,-504 571.5,-504 577.5,-510 577.5,-516 577.5,-516 577.5,-844 577.5,-844 577.5,-850 571.5,-856 565.5,-856 565.5,-856 170.5,-856 170.5,-856 164.5,-856 158.5,-850 158.5,-844 158.5,-844 158.5,-516 158.5,-516 158.5,-510 164.5,-504 170.5,-504"/>
<text text-anchor="middle" x="368" y="-841.6" font-family="Helvetica,sans-Serif" font-size="13.00">Python engine core — NOT replaced, runs as a child process</text>
</g>
<g id="clust5" class="cluster">
<title>cluster_modes</title>
<path fill="white" stroke="#71449a" d="M105.5,-371C105.5,-371 842.5,-371 842.5,-371 848.5,-371 854.5,-377 854.5,-383 854.5,-383 854.5,-471 854.5,-471 854.5,-477 848.5,-483 842.5,-483 842.5,-483 105.5,-483 105.5,-483 99.5,-483 93.5,-477 93.5,-471 93.5,-471 93.5,-383 93.5,-383 93.5,-377 99.5,-371 105.5,-371"/>
<text text-anchor="middle" x="474" y="-468.6" font-family="Helvetica,sans-Serif" font-size="13.00">Startup modes — who is the parent process</text>
</g>
<g id="clust7" class="cluster">
<title>cluster_helpers</title>
<path fill="white" stroke="#3264a8" d="M82.5,-241C82.5,-241 676.5,-241 676.5,-241 682.5,-241 688.5,-247 688.5,-253 688.5,-253 688.5,-330 688.5,-330 688.5,-336 682.5,-342 676.5,-342 676.5,-342 82.5,-342 82.5,-342 76.5,-342 70.5,-336 70.5,-330 70.5,-330 70.5,-253 70.5,-253 70.5,-247 76.5,-241 82.5,-241"/>
<text text-anchor="middle" x="379.5" y="-327.6" font-family="Helvetica,sans-Serif" font-size="13.00">Helper crates</text>
</g>
<g id="clust9" class="cluster">
<title>cluster_pybridge</title>
<path fill="white" stroke="#a66a14" d="M397.5,-119C397.5,-119 725.5,-119 725.5,-119 731.5,-119 737.5,-125 737.5,-131 737.5,-131 737.5,-208 737.5,-208 737.5,-214 731.5,-220 725.5,-220 725.5,-220 397.5,-220 397.5,-220 391.5,-220 385.5,-214 385.5,-208 385.5,-208 385.5,-131 385.5,-131 385.5,-125 391.5,-119 397.5,-119"/>
<text text-anchor="middle" x="561.5" y="-205.6" font-family="Helvetica,sans-Serif" font-size="13.00">Reverse bridge — Python calls into Rust in&#45;process</text>
</g>
<g id="clust10" class="cluster">
<title>cluster_bench</title>
<path fill="white" stroke="#666666" d="M447.5,-8C447.5,-8 837.5,-8 837.5,-8 843.5,-8 849.5,-14 849.5,-20 849.5,-20 849.5,-86 849.5,-86 849.5,-92 843.5,-98 837.5,-98 837.5,-98 447.5,-98 447.5,-98 441.5,-98 435.5,-92 435.5,-86 435.5,-86 435.5,-20 435.5,-20 435.5,-14 441.5,-8 447.5,-8"/>
<text text-anchor="middle" x="642.5" y="-83.6" font-family="Helvetica,sans-Serif" font-size="13.00">Separate program — load generator, NOT part of vllm&#45;rs</text>
</g>
<!-- client -->
<g id="node1" class="node">
<title>client</title>
<path fill="#f5f5f5" stroke="#666666" d="M376.5,-1686C376.5,-1686 238.5,-1686 238.5,-1686 232.5,-1686 226.5,-1680 226.5,-1674 226.5,-1674 226.5,-1662 226.5,-1662 226.5,-1656 232.5,-1650 238.5,-1650 238.5,-1650 376.5,-1650 376.5,-1650 382.5,-1650 388.5,-1656 388.5,-1662 388.5,-1662 388.5,-1674 388.5,-1674 388.5,-1680 382.5,-1686 376.5,-1686"/>
<text text-anchor="middle" x="307.5" y="-1671" font-family="Helvetica,sans-Serif" font-size="10.00">Client</text>
<text text-anchor="middle" x="307.5" y="-1660" font-family="Helvetica,sans-Serif" font-size="10.00">OpenAI SDK / curl / LangChain</text>
</g>
<!-- cmd -->
<g id="node2" class="node">
<title>cmd</title>
<path fill="#f3eafd" stroke="#71449a" d="M365,-1601C365,-1601 12,-1601 12,-1601 6,-1601 0,-1595 0,-1589 0,-1589 0,-1561 0,-1561 0,-1555 6,-1549 12,-1549 12,-1549 365,-1549 365,-1549 371,-1549 377,-1555 377,-1561 377,-1561 377,-1589 377,-1589 377,-1595 371,-1601 365,-1601"/>
<text text-anchor="middle" x="188.5" y="-1589" font-family="Helvetica,sans-Serif" font-size="10.00">vllm&#45;cmd &#160;/ &#160;vllm&#45;rs &#160;&#160;(rust/src/cmd)</text>
<text text-anchor="middle" x="188.5" y="-1578" font-family="Helvetica,sans-Serif" font-size="10.00">CLI entry + arg repartition (Rust&#45;owned flags vs Python passthrough),</text>
<text text-anchor="middle" x="188.5" y="-1567" font-family="Helvetica,sans-Serif" font-size="10.00">signal handling, graceful shutdown</text>
<text text-anchor="middle" x="188.5" y="-1556" font-family="Helvetica,sans-Serif" font-size="10.00">no Python counterpart — it is the process Python&#39;s cli/serve.py would fork</text>
</g>
<!-- client&#45;&gt;cmd -->
<g id="edge1" class="edge">
<title>client&#45;&gt;cmd</title>
<path fill="none" stroke="#3264a8" d="M285.12,-1649.88C268.89,-1637.47 246.52,-1620.37 227.4,-1605.75"/>
<polygon fill="#3264a8" stroke="#3264a8" points="228.63,-1603.6 221.58,-1601.29 225.65,-1607.49 228.63,-1603.6"/>
<text text-anchor="middle" x="274.5" y="-1623.6" font-family="Helvetica,sans-Serif" font-size="8.00" fill="#3264a8">invokes</text>
</g>
<!-- server -->
<g id="node3" class="node">
<title>server</title>
<path fill="#e8f1ff" stroke="#3264a8" d="M479.5,-1500C479.5,-1500 61.5,-1500 61.5,-1500 55.5,-1500 49.5,-1494 49.5,-1488 49.5,-1488 49.5,-1438 49.5,-1438 49.5,-1432 55.5,-1426 61.5,-1426 61.5,-1426 479.5,-1426 479.5,-1426 485.5,-1426 491.5,-1432 491.5,-1438 491.5,-1438 491.5,-1488 491.5,-1488 491.5,-1494 485.5,-1500 479.5,-1500"/>
<text text-anchor="middle" x="270.5" y="-1488" font-family="Helvetica,sans-Serif" font-size="10.00">vllm&#45;server &#160;(axum) &#160;&#160;(rust/src/server)</text>
<text text-anchor="middle" x="270.5" y="-1477" font-family="Helvetica,sans-Serif" font-size="10.00">27 routes: /v1/chat/completions, /v1/completions, /v1/models, /tokenize,</text>
<text text-anchor="middle" x="270.5" y="-1466" font-family="Helvetica,sans-Serif" font-size="10.00">/detokenize, /inference/v1/generate, /metrics, /health, /load, /version,</text>
<text text-anchor="middle" x="270.5" y="-1455" font-family="Helvetica,sans-Serif" font-size="10.00">LoRA, dev routes — plus auth / CORS / request&#45;id / load middleware and a gRPC sidecar</text>
<text text-anchor="middle" x="270.5" y="-1444" font-family="Helvetica,sans-Serif" font-size="10.00">replaces: vllm/entrypoints/openai/api_server.py + serving_*.py,</text>
<text text-anchor="middle" x="270.5" y="-1433" font-family="Helvetica,sans-Serif" font-size="10.00"> &#160;&#160;&#160;&#160;&#160;&#160;&#160;&#160;&#160;vllm/entrypoints/serve/**, chat_completion/api_router.py</text>
</g>
<!-- client&#45;&gt;server -->
<g id="edge3" class="edge">
<title>client&#45;&gt;server</title>
<path fill="none" stroke="#3264a8" d="M340.92,-1649.82C358.9,-1638.6 379.4,-1622.1 389.5,-1601 399.48,-1580.16 400.08,-1569.55 389.5,-1549 380.39,-1531.31 365.71,-1516.48 349.72,-1504.42"/>
<polygon fill="#3264a8" stroke="#3264a8" points="350.88,-1502.24 343.77,-1500.11 348,-1506.2 350.88,-1502.24"/>
<text text-anchor="middle" x="421" y="-1573.1" font-family="Helvetica,sans-Serif" font-size="8.00" fill="#3264a8">HTTP / gRPC</text>
</g>
<!-- cmd&#45;&gt;server -->
<g id="edge2" class="edge">
<title>cmd&#45;&gt;server</title>
<path fill="none" stroke="#71449a" stroke-dasharray="5,2" d="M207.31,-1548.76C216.75,-1536.11 228.42,-1520.45 239.16,-1506.04"/>
<polygon fill="#71449a" stroke="#71449a" points="241.16,-1507.46 243.38,-1500.38 237.23,-1504.53 241.16,-1507.46"/>
<text text-anchor="middle" x="255.5" y="-1522.6" font-family="Helvetica,sans-Serif" font-size="8.00" fill="#71449a">owns lifecycle</text>
</g>
<!-- chat -->
<g id="node4" class="node">
<title>chat</title>
<path fill="#e8f1ff" stroke="#3264a8" d="M410.5,-1377C410.5,-1377 130.5,-1377 130.5,-1377 124.5,-1377 118.5,-1371 118.5,-1365 118.5,-1365 118.5,-1326 118.5,-1326 118.5,-1320 124.5,-1314 130.5,-1314 130.5,-1314 410.5,-1314 410.5,-1314 416.5,-1314 422.5,-1320 422.5,-1326 422.5,-1326 422.5,-1365 422.5,-1365 422.5,-1371 416.5,-1377 410.5,-1377"/>
<text text-anchor="middle" x="270.5" y="-1365" font-family="Helvetica,sans-Serif" font-size="10.00">vllm&#45;chat &#160;&#160;(rust/src/chat)</text>
<text text-anchor="middle" x="270.5" y="-1354" font-family="Helvetica,sans-Serif" font-size="10.00">chat template rendering (minijinja), message serialization,</text>
<text text-anchor="middle" x="270.5" y="-1343" font-family="Helvetica,sans-Serif" font-size="10.00">renderer selection, structured assistant event stream</text>
<text text-anchor="middle" x="270.5" y="-1332" font-family="Helvetica,sans-Serif" font-size="10.00">replaces: vllm/renderers/**, vllm/entrypoints/chat_utils.py,</text>
<text text-anchor="middle" x="270.5" y="-1321" font-family="Helvetica,sans-Serif" font-size="10.00"> &#160;&#160;&#160;&#160;&#160;&#160;&#160;&#160;&#160;openai/chat_completion/serving.py</text>
</g>
<!-- server&#45;&gt;chat -->
<g id="edge4" class="edge">
<title>server&#45;&gt;chat</title>
<path fill="none" stroke="#3264a8" d="M270.5,-1425.77C270.5,-1412.6 270.5,-1397.68 270.5,-1384.37"/>
<polygon fill="#3264a8" stroke="#3264a8" points="272.95,-1384.16 270.5,-1377.16 268.05,-1384.16 272.95,-1384.16"/>
<text text-anchor="middle" x="306" y="-1399.6" font-family="Helvetica,sans-Serif" font-size="8.00" fill="#3264a8">chat completions</text>
</g>
<!-- parser -->
<g id="node5" class="node">
<title>parser</title>
<path fill="#e8f1ff" stroke="#3264a8" d="M912,-1377C912,-1377 659,-1377 659,-1377 653,-1377 647,-1371 647,-1365 647,-1365 647,-1326 647,-1326 647,-1320 653,-1314 659,-1314 659,-1314 912,-1314 912,-1314 918,-1314 924,-1320 924,-1326 924,-1326 924,-1365 924,-1365 924,-1371 918,-1377 912,-1377"/>
<text text-anchor="middle" x="785.5" y="-1365" font-family="Helvetica,sans-Serif" font-size="10.00">vllm&#45;parser &#160;&#160;(rust/src/parser)</text>
<text text-anchor="middle" x="785.5" y="-1354" font-family="Helvetica,sans-Serif" font-size="10.00">23 tool&#45;parser families, 16 reasoning&#45;parser families,</text>
<text text-anchor="middle" x="785.5" y="-1343" font-family="Helvetica,sans-Serif" font-size="10.00">unified / combined parser, structural&#45;tag model</text>
<text text-anchor="middle" x="785.5" y="-1332" font-family="Helvetica,sans-Serif" font-size="10.00">replaces: vllm/tool_parsers/**, vllm/reasoning/**,</text>
<text text-anchor="middle" x="785.5" y="-1321" font-family="Helvetica,sans-Serif" font-size="10.00"> &#160;&#160;&#160;&#160;&#160;&#160;&#160;&#160;&#160;vllm/parser/**</text>
</g>
<!-- chat&#45;&gt;parser -->
<g id="edge8" class="edge">
<title>chat&#45;&gt;parser</title>
<path fill="none" stroke="#3264a8" d="M422.58,-1345.5C491.13,-1345.5 571.73,-1345.5 639.54,-1345.5"/>
<polygon fill="#3264a8" stroke="#3264a8" points="639.9,-1347.95 646.9,-1345.5 639.9,-1343.05 639.9,-1347.95"/>
<text text-anchor="middle" x="534.75" y="-1351.1" font-family="Helvetica,sans-Serif" font-size="8.00" fill="#3264a8">decode deltas</text>
</g>
<!-- text -->
<g id="node6" class="node">
<title>text</title>
<path fill="#e8f1ff" stroke="#3264a8" d="M427.5,-1265C427.5,-1265 113.5,-1265 113.5,-1265 107.5,-1265 101.5,-1259 101.5,-1253 101.5,-1253 101.5,-1214 101.5,-1214 101.5,-1208 107.5,-1202 113.5,-1202 113.5,-1202 427.5,-1202 427.5,-1202 433.5,-1202 439.5,-1208 439.5,-1214 439.5,-1214 439.5,-1253 439.5,-1253 439.5,-1259 433.5,-1265 427.5,-1265"/>
<text text-anchor="middle" x="270.5" y="-1253" font-family="Helvetica,sans-Serif" font-size="10.00">vllm&#45;text &#160;&#160;(rust/src/text)</text>
<text text-anchor="middle" x="270.5" y="-1242" font-family="Helvetica,sans-Serif" font-size="10.00">prompt lowering + sampling params, incremental detokenization,</text>
<text text-anchor="middle" x="270.5" y="-1231" font-family="Helvetica,sans-Serif" font-size="10.00">logprob / prompt&#45;logprob decode, HF tokenizer+config loading</text>
<text text-anchor="middle" x="270.5" y="-1220" font-family="Helvetica,sans-Serif" font-size="10.00">replaces: vllm/tokenizers/detokenizer_utils.py,</text>
<text text-anchor="middle" x="270.5" y="-1209" font-family="Helvetica,sans-Serif" font-size="10.00"> &#160;&#160;&#160;&#160;&#160;&#160;&#160;&#160;&#160;vllm/v1/engine/detokenizer.py</text>
</g>
<!-- chat&#45;&gt;text -->
<g id="edge5" class="edge">
<title>chat&#45;&gt;text</title>
<path fill="none" stroke="#3264a8" d="M270.5,-1313.86C270.5,-1301.09 270.5,-1286.13 270.5,-1272.66"/>
<polygon fill="#3264a8" stroke="#3264a8" points="272.95,-1272.36 270.5,-1265.36 268.05,-1272.36 272.95,-1272.36"/>
<text text-anchor="middle" x="305.5" y="-1287.6" font-family="Helvetica,sans-Serif" font-size="8.00" fill="#3264a8">rendered prompt</text>
</g>
<!-- pybridge -->
<g id="node23" class="node">
<title>pybridge</title>
<path fill="#fff3df" stroke="#a66a14" d="M691,-190C691,-190 424,-190 424,-190 418,-190 412,-184 412,-178 412,-178 412,-139 412,-139 412,-133 418,-127 424,-127 424,-127 691,-127 691,-127 697,-127 703,-133 703,-139 703,-139 703,-178 703,-178 703,-184 697,-190 691,-190"/>
<text text-anchor="middle" x="557.5" y="-178" font-family="Helvetica,sans-Serif" font-size="10.00">vllm._rust_tool_parser &#160;&#160;(rust/src/parser/python)</text>
<text text-anchor="middle" x="557.5" y="-167" font-family="Helvetica,sans-Serif" font-size="10.00">the ONLY PyO3 extension in the workspace</text>
<text text-anchor="middle" x="557.5" y="-156" font-family="Helvetica,sans-Serif" font-size="10.00">exports just 3 parser names (MinimaxM3 + 2 test&#45;only);</text>
<text text-anchor="middle" x="557.5" y="-145" font-family="Helvetica,sans-Serif" font-size="10.00">no reasoning / unified parsing exposed</text>
<text text-anchor="middle" x="557.5" y="-134" font-family="Helvetica,sans-Serif" font-size="10.00">call site: vllm/tool_parsers/rust_tool_parser.py</text>
</g>
<!-- parser&#45;&gt;pybridge -->
<g id="edge25" class="edge">
<title>parser&#45;&gt;pybridge</title>
<path fill="none" stroke="#a66a14" stroke-dasharray="5,2" d="M735.35,-1309.15C721.85,-1296.86 708.94,-1281.86 701.5,-1265 651.42,-1151.55 664.12,-1105.44 697.5,-986 715.09,-923.05 984.91,-545.95 1002.5,-483 1015.9,-435.06 1029.09,-413.08 1002.5,-371 938.68,-270.01 812.04,-216.26 710.13,-188.27"/>
<polygon fill="#a66a14" stroke="#a66a14" points="733.87,-1311.12 740.75,-1313.91 737.11,-1307.44 733.87,-1311.12"/>
<polygon fill="#a66a14" stroke="#a66a14" points="710.54,-185.84 703.14,-186.38 709.26,-190.57 710.54,-185.84"/>
<text text-anchor="middle" x="846" y="-758.6" font-family="Helvetica,sans-Serif" font-size="8.00" fill="#a66a14">PyO3</text>
</g>
<!-- tokenizer -->
<g id="node7" class="node">
<title>tokenizer</title>
<path fill="#e8f1ff" stroke="#3264a8" d="M983.5,-1265C983.5,-1265 725.5,-1265 725.5,-1265 719.5,-1265 713.5,-1259 713.5,-1253 713.5,-1253 713.5,-1214 713.5,-1214 713.5,-1208 719.5,-1202 725.5,-1202 725.5,-1202 983.5,-1202 983.5,-1202 989.5,-1202 995.5,-1208 995.5,-1214 995.5,-1214 995.5,-1253 995.5,-1253 995.5,-1259 989.5,-1265 983.5,-1265"/>
<text text-anchor="middle" x="854.5" y="-1253" font-family="Helvetica,sans-Serif" font-size="10.00">vllm&#45;tokenizer &#160;&#160;(rust/src/tokenizer)</text>
<text text-anchor="middle" x="854.5" y="-1242" font-family="Helvetica,sans-Serif" font-size="10.00">HF tokenizers / tiktoken / tekken backends,</text>
<text text-anchor="middle" x="854.5" y="-1231" font-family="Helvetica,sans-Serif" font-size="10.00">DecodeStream incremental decode, byte&#45;level decode</text>
<text text-anchor="middle" x="854.5" y="-1220" font-family="Helvetica,sans-Serif" font-size="10.00">replaces: vllm/tokenizers/registry.py, hf.py,</text>
<text text-anchor="middle" x="854.5" y="-1209" font-family="Helvetica,sans-Serif" font-size="10.00"> &#160;&#160;&#160;&#160;&#160;&#160;&#160;&#160;&#160;protocol.py</text>
</g>
<!-- text&#45;&gt;tokenizer -->
<g id="edge9" class="edge">
<title>text&#45;&gt;tokenizer</title>
<path fill="none" stroke="#3264a8" d="M439.81,-1233.5C524,-1233.5 624.82,-1233.5 705.97,-1233.5"/>
<polygon fill="#3264a8" stroke="#3264a8" points="706.27,-1235.95 713.27,-1233.5 706.27,-1231.05 706.27,-1235.95"/>
<text text-anchor="middle" x="576.5" y="-1239.1" font-family="Helvetica,sans-Serif" font-size="8.00" fill="#3264a8">encode / decode</text>
</g>
<!-- llm -->
<g id="node8" class="node">
<title>llm</title>
<path fill="#e8f1ff" stroke="#3264a8" d="M410,-1153C410,-1153 131,-1153 131,-1153 125,-1153 119,-1147 119,-1141 119,-1141 119,-1102 119,-1102 119,-1096 125,-1090 131,-1090 131,-1090 410,-1090 410,-1090 416,-1090 422,-1096 422,-1102 422,-1102 422,-1141 422,-1141 422,-1147 416,-1153 410,-1153"/>
<text text-anchor="middle" x="270.5" y="-1141" font-family="Helvetica,sans-Serif" font-size="10.00">vllm&#45;llm &#160;&#160;(rust/src/llm)</text>
<text text-anchor="middle" x="270.5" y="-1130" font-family="Helvetica,sans-Serif" font-size="10.00">token&#45;in / token&#45;out facade, generate + abort,</text>
<text text-anchor="middle" x="270.5" y="-1119" font-family="Helvetica,sans-Serif" font-size="10.00">in&#45;flight id bookkeeping, request&#45;scoped metrics</text>
<text text-anchor="middle" x="270.5" y="-1108" font-family="Helvetica,sans-Serif" font-size="10.00">replaces: vllm/v1/engine/async_llm.py,</text>
<text text-anchor="middle" x="270.5" y="-1097" font-family="Helvetica,sans-Serif" font-size="10.00"> &#160;&#160;&#160;&#160;&#160;&#160;&#160;&#160;&#160;vllm/v1/engine/output_processor.py, vllm/outputs.py</text>
</g>
<!-- text&#45;&gt;llm -->
<g id="edge6" class="edge">
<title>text&#45;&gt;llm</title>
<path fill="none" stroke="#3264a8" d="M270.5,-1201.86C270.5,-1189.09 270.5,-1174.13 270.5,-1160.66"/>
<polygon fill="#3264a8" stroke="#3264a8" points="272.95,-1160.36 270.5,-1153.36 268.05,-1160.36 272.95,-1160.36"/>
<text text-anchor="middle" x="304.5" y="-1175.6" font-family="Helvetica,sans-Serif" font-size="8.00" fill="#3264a8">token&#45;in request</text>
</g>
<!-- ecc -->
<g id="node9" class="node">
<title>ecc</title>
<path fill="#e8f1ff" stroke="#3264a8" d="M423,-1049C423,-1049 118,-1049 118,-1049 112,-1049 106,-1043 106,-1037 106,-1037 106,-998 106,-998 106,-992 112,-986 118,-986 118,-986 423,-986 423,-986 429,-986 435,-992 435,-998 435,-998 435,-1037 435,-1037 435,-1043 429,-1049 423,-1049"/>
<text text-anchor="middle" x="270.5" y="-1037" font-family="Helvetica,sans-Serif" font-size="10.00">vllm&#45;engine&#45;core&#45;client &#160;&#160;(rust/src/engine&#45;core&#45;client)</text>
<text text-anchor="middle" x="270.5" y="-1026" font-family="Helvetica,sans-Serif" font-size="10.00">ZMQ + MessagePack wire protocol, handshake, request routing,</text>
<text text-anchor="middle" x="270.5" y="-1015" font-family="Helvetica,sans-Serif" font-size="10.00">output demux, DP coordinator, utility RPC</text>
<text text-anchor="middle" x="270.5" y="-1004" font-family="Helvetica,sans-Serif" font-size="10.00">replaces: vllm/v1/engine/core_client.py, vllm/v1/engine/utils.py,</text>
<text text-anchor="middle" x="270.5" y="-993" font-family="Helvetica,sans-Serif" font-size="10.00"> &#160;&#160;&#160;&#160;&#160;&#160;&#160;&#160;&#160;vllm/v1/serial_utils.py, vllm/v1/engine/coordinator.py</text>
</g>
<!-- llm&#45;&gt;ecc -->
<g id="edge7" class="edge">
<title>llm&#45;&gt;ecc</title>
<path fill="none" stroke="#3264a8" d="M270.5,-1089.9C270.5,-1079.31 270.5,-1067.31 270.5,-1056.22"/>
<polygon fill="#3264a8" stroke="#3264a8" points="272.95,-1056.08 270.5,-1049.08 268.05,-1056.08 272.95,-1056.08"/>
</g>
<!-- metrics -->
<g id="node10" class="node">
<title>metrics</title>
<path fill="#e8f1ff" stroke="#3264a8" d="M982,-1043.5C982,-1043.5 721,-1043.5 721,-1043.5 715,-1043.5 709,-1037.5 709,-1031.5 709,-1031.5 709,-1003.5 709,-1003.5 709,-997.5 715,-991.5 721,-991.5 721,-991.5 982,-991.5 982,-991.5 988,-991.5 994,-997.5 994,-1003.5 994,-1003.5 994,-1031.5 994,-1031.5 994,-1037.5 988,-1043.5 982,-1043.5"/>
<text text-anchor="middle" x="851.5" y="-1031.5" font-family="Helvetica,sans-Serif" font-size="10.00">vllm&#45;metrics &#160;&#160;(rust/src/metrics)</text>
<text text-anchor="middle" x="851.5" y="-1020.5" font-family="Helvetica,sans-Serif" font-size="10.00">Prometheus registry: scheduler / request / http families</text>
<text text-anchor="middle" x="851.5" y="-1009.5" font-family="Helvetica,sans-Serif" font-size="10.00">replaces: vllm/v1/metrics/loggers.py</text>
<text text-anchor="middle" x="851.5" y="-998.5" font-family="Helvetica,sans-Serif" font-size="10.00"> &#160;&#160;&#160;&#160;&#160;&#160;&#160;&#160;&#160;(metric definitions only)</text>
</g>
<!-- ecc&#45;&gt;metrics -->
<g id="edge10" class="edge">
<title>ecc&#45;&gt;metrics</title>
<path fill="none" stroke="#3264a8" stroke-dasharray="5,2" d="M435.05,-1017.5C518.75,-1017.5 619.76,-1017.5 701.33,-1017.5"/>
<polygon fill="#3264a8" stroke="#3264a8" points="701.66,-1019.95 708.66,-1017.5 701.66,-1015.05 701.66,-1019.95"/>
<text text-anchor="middle" x="572" y="-1023.1" font-family="Helvetica,sans-Serif" font-size="8.00" fill="#3264a8">scheduler stats</text>
</g>
<!-- zmq -->
<g id="node11" class="node">
<title>zmq</title>
<path fill="#fff3df" stroke="#a66a14" stroke-width="2" d="M449,-937C449,-937 92,-937 92,-937 86,-937 80,-931 80,-925 80,-925 80,-897 80,-897 80,-891 86,-885 92,-885 92,-885 449,-885 449,-885 455,-885 461,-891 461,-897 461,-897 461,-925 461,-925 461,-931 455,-937 449,-937"/>
<text text-anchor="middle" x="270.5" y="-925" font-family="Helvetica,sans-Serif" font-size="10.00">ZMQ + MessagePack engine boundary</text>
<text text-anchor="middle" x="270.5" y="-914" font-family="Helvetica,sans-Serif" font-size="10.00">transport: ROUTER (requests in) / PULL (outputs out) / DEALER (handshake)</text>
<text text-anchor="middle" x="270.5" y="-903" font-family="Helvetica,sans-Serif" font-size="10.00">handshake: HELLO to INIT to READY to EngineCoreReadyResponse</text>
<text text-anchor="middle" x="270.5" y="-892" font-family="Helvetica,sans-Serif" font-size="10.00">sentinel: ENGINE_CORE_DEAD</text>
</g>
<!-- ecc&#45;&gt;zmq -->
<g id="edge11" class="edge">
<title>ecc&#45;&gt;zmq</title>
<path fill="none" stroke="#a66a14" stroke-width="1.6" d="M270.5,-985.99C270.5,-972.88 270.5,-957.54 270.5,-944.24"/>
<polygon fill="#a66a14" stroke="#a66a14" stroke-width="1.6" points="272.95,-944.09 270.5,-937.09 268.05,-944.09 272.95,-944.09"/>
<text text-anchor="middle" x="304.5" y="-959.6" font-family="Helvetica,sans-Serif" font-size="8.00" fill="#a66a14">msgpack frames</text>
</g>
<!-- enginecore -->
<g id="node12" class="node">
<title>enginecore</title>
<path fill="#eaf7ed" stroke="#3c7a4a" d="M322.5,-826C322.5,-826 218.5,-826 218.5,-826 212.5,-826 206.5,-820 206.5,-814 206.5,-814 206.5,-797 206.5,-797 206.5,-791 212.5,-785 218.5,-785 218.5,-785 322.5,-785 322.5,-785 328.5,-785 334.5,-791 334.5,-797 334.5,-797 334.5,-814 334.5,-814 334.5,-820 328.5,-826 322.5,-826"/>
<text text-anchor="middle" x="270.5" y="-814" font-family="Helvetica,sans-Serif" font-size="10.00">EngineCoreProc</text>
<text text-anchor="middle" x="270.5" y="-803" font-family="Helvetica,sans-Serif" font-size="10.00">vllm/v1/engine/core.py</text>
<text text-anchor="middle" x="270.5" y="-792" font-family="Helvetica,sans-Serif" font-size="10.00">step() loop</text>
</g>
<!-- zmq&#45;&gt;enginecore -->
<g id="edge17" class="edge">
<title>zmq&#45;&gt;enginecore</title>
<path fill="none" stroke="#a66a14" stroke-width="1.6" d="M270.5,-884.95C270.5,-878.24 270.5,-870.72 270.5,-863.06"/>
<polygon fill="#a66a14" stroke="#a66a14" stroke-width="1.6" points="272.95,-863 270.5,-856 268.05,-863 272.95,-863"/>
</g>
<!-- sched -->
<g id="node13" class="node">
<title>sched</title>
<path fill="#eaf7ed" stroke="#3c7a4a" d="M353,-736C353,-736 188,-736 188,-736 182,-736 176,-730 176,-724 176,-724 176,-696 176,-696 176,-690 182,-684 188,-684 188,-684 353,-684 353,-684 359,-684 365,-690 365,-696 365,-696 365,-724 365,-724 365,-730 359,-736 353,-736"/>
<text text-anchor="middle" x="270.5" y="-724" font-family="Helvetica,sans-Serif" font-size="10.00">Scheduler + KV cache</text>
<text text-anchor="middle" x="270.5" y="-713" font-family="Helvetica,sans-Serif" font-size="10.00">vllm/v1/core/sched/</text>
<text text-anchor="middle" x="270.5" y="-702" font-family="Helvetica,sans-Serif" font-size="10.00">vllm/v1/core/kv_cache_manager.py</text>
<text text-anchor="middle" x="270.5" y="-691" font-family="Helvetica,sans-Serif" font-size="10.00">vllm/v1/kv_offload/</text>
</g>
<!-- enginecore&#45;&gt;sched -->
<g id="edge12" class="edge">
<title>enginecore&#45;&gt;sched</title>
<path fill="none" stroke="#555555" d="M270.5,-784.67C270.5,-772.62 270.5,-756.95 270.5,-743.16"/>
<polygon fill="#555555" stroke="#555555" points="272.95,-743.15 270.5,-736.15 268.05,-743.15 272.95,-743.15"/>
</g>
<!-- executor -->
<g id="node14" class="node">
<title>executor</title>
<path fill="#eaf7ed" stroke="#3c7a4a" d="M311,-643C311,-643 198,-643 198,-643 192,-643 186,-637 186,-631 186,-631 186,-614 186,-614 186,-608 192,-602 198,-602 198,-602 311,-602 311,-602 317,-602 323,-608 323,-614 323,-614 323,-631 323,-631 323,-637 317,-643 311,-643"/>
<text text-anchor="middle" x="254.5" y="-631" font-family="Helvetica,sans-Serif" font-size="10.00">ModelExecutor + Worker</text>
<text text-anchor="middle" x="254.5" y="-620" font-family="Helvetica,sans-Serif" font-size="10.00">vllm/v1/executor/</text>
<text text-anchor="middle" x="254.5" y="-609" font-family="Helvetica,sans-Serif" font-size="10.00">vllm/v1/worker/</text>
</g>
<!-- sched&#45;&gt;executor -->
<g id="edge13" class="edge">
<title>sched&#45;&gt;executor</title>
<path fill="none" stroke="#555555" d="M265.79,-683.81C263.81,-673.24 261.51,-660.95 259.5,-650.22"/>
<polygon fill="#555555" stroke="#555555" points="261.86,-649.52 258.17,-643.09 257.05,-650.42 261.86,-649.52"/>
</g>
<!-- structured -->
<g id="node16" class="node">
<title>structured</title>
<path fill="#eaf7ed" stroke="#3c7a4a" d="M481.5,-640.5C481.5,-640.5 359.5,-640.5 359.5,-640.5 353.5,-640.5 347.5,-634.5 347.5,-628.5 347.5,-628.5 347.5,-616.5 347.5,-616.5 347.5,-610.5 353.5,-604.5 359.5,-604.5 359.5,-604.5 481.5,-604.5 481.5,-604.5 487.5,-604.5 493.5,-610.5 493.5,-616.5 493.5,-616.5 493.5,-628.5 493.5,-628.5 493.5,-634.5 487.5,-640.5 481.5,-640.5"/>
<text text-anchor="middle" x="420.5" y="-625.5" font-family="Helvetica,sans-Serif" font-size="10.00">Structured output</text>
<text text-anchor="middle" x="420.5" y="-614.5" font-family="Helvetica,sans-Serif" font-size="10.00">vllm/v1/structured_output/</text>
</g>
<!-- sched&#45;&gt;structured -->
<g id="edge16" class="edge">
<title>sched&#45;&gt;structured</title>
<path fill="none" stroke="#555555" d="M314.69,-683.81C336.78,-671.22 363.18,-656.17 384.08,-644.26"/>
<polygon fill="#555555" stroke="#555555" points="385.51,-646.26 390.38,-640.67 383.09,-642.01 385.51,-646.26"/>
</g>
<!-- sampler -->
<g id="node15" class="node">
<title>sampler</title>
<path fill="#eaf7ed" stroke="#3c7a4a" d="M298.5,-553C298.5,-553 190.5,-553 190.5,-553 184.5,-553 178.5,-547 178.5,-541 178.5,-541 178.5,-524 178.5,-524 178.5,-518 184.5,-512 190.5,-512 190.5,-512 298.5,-512 298.5,-512 304.5,-512 310.5,-518 310.5,-524 310.5,-524 310.5,-541 310.5,-541 310.5,-547 304.5,-553 298.5,-553"/>
<text text-anchor="middle" x="244.5" y="-541" font-family="Helvetica,sans-Serif" font-size="10.00">Sampler + spec decode</text>
<text text-anchor="middle" x="244.5" y="-530" font-family="Helvetica,sans-Serif" font-size="10.00">vllm/v1/sample/</text>
<text text-anchor="middle" x="244.5" y="-519" font-family="Helvetica,sans-Serif" font-size="10.00">vllm/v1/spec_decode/</text>
</g>
<!-- executor&#45;&gt;sampler -->
<g id="edge14" class="edge">
<title>executor&#45;&gt;sampler</title>
<path fill="none" stroke="#555555" d="M252.28,-601.97C250.89,-589.75 249.08,-573.84 247.56,-560.43"/>
<polygon fill="#555555" stroke="#555555" points="249.97,-559.96 246.75,-553.28 245.1,-560.51 249.97,-559.96"/>
</g>
<!-- modelimpl -->
<g id="node17" class="node">
<title>modelimpl</title>
<path fill="#eaf7ed" stroke="#3c7a4a" d="M444.5,-550.5C444.5,-550.5 346.5,-550.5 346.5,-550.5 340.5,-550.5 334.5,-544.5 334.5,-538.5 334.5,-538.5 334.5,-526.5 334.5,-526.5 334.5,-520.5 340.5,-514.5 346.5,-514.5 346.5,-514.5 444.5,-514.5 444.5,-514.5 450.5,-514.5 456.5,-520.5 456.5,-526.5 456.5,-526.5 456.5,-538.5 456.5,-538.5 456.5,-544.5 450.5,-550.5 444.5,-550.5"/>
<text text-anchor="middle" x="395.5" y="-535.5" font-family="Helvetica,sans-Serif" font-size="10.00">Models + kernels</text>
<text text-anchor="middle" x="395.5" y="-524.5" font-family="Helvetica,sans-Serif" font-size="10.00">vllm/model_executor/</text>
</g>
<!-- executor&#45;&gt;modelimpl -->
<g id="edge15" class="edge">
<title>executor&#45;&gt;modelimpl</title>
<path fill="none" stroke="#555555" d="M285.79,-601.97C308.43,-587.84 338.98,-568.77 362.1,-554.35"/>
<polygon fill="#555555" stroke="#555555" points="363.46,-556.38 368.1,-550.6 360.87,-552.23 363.46,-556.38"/>
</g>
<!-- modeA -->
<g id="node20" class="node">
<title>modeA</title>
<path fill="#f3eafd" stroke="#71449a" d="M375.5,-453C375.5,-453 113.5,-453 113.5,-453 107.5,-453 101.5,-447 101.5,-441 101.5,-441 101.5,-391 101.5,-391 101.5,-385 107.5,-379 113.5,-379 113.5,-379 375.5,-379 375.5,-379 381.5,-379 387.5,-385 387.5,-391 387.5,-391 387.5,-441 387.5,-441 387.5,-447 381.5,-453 375.5,-453"/>
<text text-anchor="middle" x="244.5" y="-441" font-family="Helvetica,sans-Serif" font-size="10.00">A. Python&#45;supervised Rust worker</text>
<text text-anchor="middle" x="244.5" y="-430" font-family="Helvetica,sans-Serif" font-size="10.00">VLLM_USE_RUST_FRONTEND=1 vllm serve &lt;model&gt;</text>
<text text-anchor="middle" x="244.5" y="-419" font-family="Helvetica,sans-Serif" font-size="10.00">Python binds the listen socket, starts EngineCore,</text>
<text text-anchor="middle" x="244.5" y="-408" font-family="Helvetica,sans-Serif" font-size="10.00">then spawns `vllm&#45;rs frontend` as a supervised worker</text>
<text text-anchor="middle" x="244.5" y="-397" font-family="Helvetica,sans-Serif" font-size="10.00">handing it the inherited fd (&#45;&#45;listen&#45;fd) and the</text>
<text text-anchor="middle" x="244.5" y="-386" font-family="Helvetica,sans-Serif" font-size="10.00">ZMQ input/output addresses</text>
</g>
<!-- sampler&#45;&gt;modeA -->
<!-- modeC -->
<g id="node18" class="node">
<title>modeC</title>
<path fill="#f3eafd" stroke="#71449a" d="M834,-447.5C834,-447.5 657,-447.5 657,-447.5 651,-447.5 645,-441.5 645,-435.5 645,-435.5 645,-396.5 645,-396.5 645,-390.5 651,-384.5 657,-384.5 657,-384.5 834,-384.5 834,-384.5 840,-384.5 846,-390.5 846,-396.5 846,-396.5 846,-435.5 846,-435.5 846,-441.5 840,-447.5 834,-447.5"/>
<text text-anchor="middle" x="745.5" y="-435.5" font-family="Helvetica,sans-Serif" font-size="10.00">C. External engine</text>
<text text-anchor="middle" x="745.5" y="-424.5" font-family="Helvetica,sans-Serif" font-size="10.00">vllm&#45;rs serve</text>
<text text-anchor="middle" x="745.5" y="-413.5" font-family="Helvetica,sans-Serif" font-size="10.00"> &#160;&#160;&#45;&#45;data&#45;parallel&#45;size&#45;local 0</text>
<text text-anchor="middle" x="745.5" y="-402.5" font-family="Helvetica,sans-Serif" font-size="10.00">Rust frontend only; the Python engine</text>
<text text-anchor="middle" x="745.5" y="-391.5" font-family="Helvetica,sans-Serif" font-size="10.00">is started separately elsewhere</text>
</g>
<!-- modeC&#45;&gt;cmd -->
<g id="edge20" class="edge">
<title>modeC&#45;&gt;cmd</title>
<path fill="none" stroke="#71449a" stroke-dasharray="5,2" d="M733.92,-447.52C722.81,-478.57 706.81,-528.34 700.5,-573 688.95,-654.68 724.24,-673.83 731.5,-756 735.87,-805.5 721.16,-826.06 681.5,-856 668.76,-865.61 660.85,-857.03 646.5,-864 633.14,-870.49 628.11,-872.25 620.5,-885 549.2,-1004.46 600.37,-1400.15 503.5,-1500 496.54,-1507.17 400.06,-1529.22 315.69,-1547.4"/>
<polygon fill="#71449a" stroke="#71449a" points="314.93,-1545.06 308.6,-1548.92 315.96,-1549.85 314.93,-1545.06"/>
<text text-anchor="middle" x="597.5" y="-959.6" font-family="Helvetica,sans-Serif" font-size="8.00" fill="#71449a">C</text>
</g>
<!-- modeB -->
<g id="node19" class="node">
<title>modeB</title>
<path fill="#f3eafd" stroke="#71449a" d="M609,-453C609,-453 424,-453 424,-453 418,-453 412,-447 412,-441 412,-441 412,-391 412,-391 412,-385 418,-379 424,-379 424,-379 609,-379 609,-379 615,-379 621,-385 621,-391 621,-391 621,-441 621,-441 621,-447 615,-453 609,-453"/>
<text text-anchor="middle" x="516.5" y="-441" font-family="Helvetica,sans-Serif" font-size="10.00">B. Rust&#45;supervised Python engine</text>
<text text-anchor="middle" x="516.5" y="-430" font-family="Helvetica,sans-Serif" font-size="10.00">vllm&#45;rs serve &lt;model&gt;</text>
<text text-anchor="middle" x="516.5" y="-419" font-family="Helvetica,sans-Serif" font-size="10.00">Rust binds its own listener and spawns</text>
<text text-anchor="middle" x="516.5" y="-408" font-family="Helvetica,sans-Serif" font-size="10.00">python &#45;m vllm.entrypoints.cli.main</text>
<text text-anchor="middle" x="516.5" y="-397" font-family="Helvetica,sans-Serif" font-size="10.00"> &#160;&#160;serve &lt;model&gt; &#45;&#45;headless</text>
<text text-anchor="middle" x="516.5" y="-386" font-family="Helvetica,sans-Serif" font-size="10.00"> &#160;&#160;&#45;&#45;data&#45;parallel&#45;address/&#45;rpc&#45;port/&#45;size</text>
</g>
<!-- managed -->
<g id="node22" class="node">
<title>managed</title>
<path fill="#e8f1ff" stroke="#3264a8" d="M398.5,-312C398.5,-312 90.5,-312 90.5,-312 84.5,-312 78.5,-306 78.5,-300 78.5,-300 78.5,-261 78.5,-261 78.5,-255 84.5,-249 90.5,-249 90.5,-249 398.5,-249 398.5,-249 404.5,-249 410.5,-255 410.5,-261 410.5,-261 410.5,-300 410.5,-300 410.5,-306 404.5,-312 398.5,-312"/>
<text text-anchor="middle" x="244.5" y="-300" font-family="Helvetica,sans-Serif" font-size="10.00">vllm&#45;managed&#45;engine &#160;&#160;(rust/src/managed&#45;engine)</text>
<text text-anchor="middle" x="244.5" y="-289" font-family="Helvetica,sans-Serif" font-size="10.00">spawn + supervise the Python &#45;&#45;headless engine,</text>
<text text-anchor="middle" x="244.5" y="-278" font-family="Helvetica,sans-Serif" font-size="10.00">port allocation, process&#45;group SIGTERM to SIGKILL</text>
<text text-anchor="middle" x="244.5" y="-267" font-family="Helvetica,sans-Serif" font-size="10.00">partly replaces: vllm/v1/engine/utils.py CoreEngineProcManager,</text>
<text text-anchor="middle" x="244.5" y="-256" font-family="Helvetica,sans-Serif" font-size="10.00"> &#160;&#160;&#160;&#160;&#160;&#160;&#160;&#160;&#160;&#160;&#160;&#160;&#160;&#160;&#160;&#160;cli/serve.py run_headless()</text>
</g>
<!-- modeB&#45;&gt;managed -->
<g id="edge22" class="edge">
<title>modeB&#45;&gt;managed</title>
<path fill="none" stroke="#71449a" stroke-dasharray="5,2" d="M442.89,-378.87C402.59,-359.09 352.95,-334.73 313.41,-315.32"/>
<polygon fill="#71449a" stroke="#71449a" points="314.01,-312.89 306.65,-312 311.85,-317.29 314.01,-312.89"/>
<text text-anchor="middle" x="399.5" y="-352.6" font-family="Helvetica,sans-Serif" font-size="8.00" fill="#71449a">B</text>
</g>
<!-- modeA&#45;&gt;cmd -->
<g id="edge19" class="edge">
<title>modeA&#45;&gt;cmd</title>
<path fill="none" stroke="#71449a" stroke-dasharray="5,2" d="M317.57,-453.01C343.24,-464.28 372.63,-475.67 400.5,-483 479.67,-503.83 505.79,-478.26 583.5,-504 641.54,-523.22 660.32,-528.74 702.5,-573 733.34,-605.36 768.92,-720.76 762.5,-765 756.44,-806.75 768.03,-829.13 735.5,-856 707.61,-879.04 682.77,-841.43 654.5,-864 620.45,-891.18 632.42,-914.35 623.5,-957 598.55,-1076.26 635.51,-1415.74 547.5,-1500 532.72,-1514.15 442.14,-1532.77 355.67,-1547.79"/>
<polygon fill="#71449a" stroke="#71449a" points="355.14,-1545.39 348.66,-1549 355.98,-1550.22 355.14,-1545.39"/>
<text text-anchor="middle" x="626.5" y="-959.6" font-family="Helvetica,sans-Serif" font-size="8.00" fill="#71449a">A</text>
</g>
<!-- modeA&#45;&gt;managed -->
<!-- mock -->
<g id="node21" class="node">
<title>mock</title>
<path fill="#e8f1ff" stroke="#3264a8" d="M668,-301C668,-301 447,-301 447,-301 441,-301 435,-295 435,-289 435,-289 435,-272 435,-272 435,-266 441,-260 447,-260 447,-260 668,-260 668,-260 674,-260 680,-266 680,-272 680,-272 680,-289 680,-289 680,-295 674,-301 668,-301"/>
<text text-anchor="middle" x="557.5" y="-289" font-family="Helvetica,sans-Serif" font-size="10.00">vllm&#45;mock&#45;engine &#160;&#160;(rust/src/mock&#45;engine)</text>
<text text-anchor="middle" x="557.5" y="-278" font-family="Helvetica,sans-Serif" font-size="10.00">protocol&#45;level fake engine (no GPU, no Python)</text>
<text text-anchor="middle" x="557.5" y="-267" font-family="Helvetica,sans-Serif" font-size="10.00">Rust&#45;only test double, no Python counterpart</text>
</g>
<!-- mock&#45;&gt;pybridge -->
<!-- managed&#45;&gt;enginecore -->
<g id="edge23" class="edge">
<title>managed&#45;&gt;enginecore</title>
<path fill="none" stroke="#a66a14" stroke-dasharray="5,2" d="M322.28,-312.09C353.32,-323.15 389.67,-334.71 423.5,-342 498.59,-358.18 518.88,-353.48 595.5,-359 610.2,-360.06 850.32,-360.35 860.5,-371 894.89,-406.99 895.31,-447.42 860.5,-483 846.43,-497.38 515.33,-479.98 498.5,-491 494.3,-493.75 461.58,-568.1 460.5,-573 459.64,-576.91 458.32,-578.65 460.5,-582 472.43,-600.35 493.57,-583.65 505.5,-602 515.43,-617.28 513.77,-626.76 505.5,-643 470.01,-712.65 388.89,-757.83 331.93,-782.22"/>
<polygon fill="#a66a14" stroke="#a66a14" points="330.96,-779.97 325.46,-784.95 332.86,-784.49 330.96,-779.97"/>
<text text-anchor="middle" x="520" y="-575.6" font-family="Helvetica,sans-Serif" font-size="8.00" fill="#a66a14">B: spawns &#45;&#45;headless engine</text>
</g>
<!-- bench_rs -->
<g id="node25" class="node">
<title>bench_rs</title>
<path fill="#f5f5f5" stroke="#666666" d="M659.5,-68C659.5,-68 455.5,-68 455.5,-68 449.5,-68 443.5,-62 443.5,-56 443.5,-56 443.5,-28 443.5,-28 443.5,-22 449.5,-16 455.5,-16 455.5,-16 659.5,-16 659.5,-16 665.5,-16 671.5,-22 671.5,-28 671.5,-28 671.5,-56 671.5,-56 671.5,-62 665.5,-68 659.5,-68"/>
<text text-anchor="middle" x="557.5" y="-56" font-family="Helvetica,sans-Serif" font-size="10.00">vllm&#45;bench &#160;&#160;(rust/src/bench)</text>
<text text-anchor="middle" x="557.5" y="-45" font-family="Helvetica,sans-Serif" font-size="10.00">standalone binary, no Python at runtime</text>
<text text-anchor="middle" x="557.5" y="-34" font-family="Helvetica,sans-Serif" font-size="10.00">replaces: vllm/benchmarks/serve.py</text>
<text text-anchor="middle" x="557.5" y="-23" font-family="Helvetica,sans-Serif" font-size="10.00">(same JSON schema and timing semantics)</text>
</g>
<!-- pybridge&#45;&gt;bench_rs -->
<!-- bench_py -->
<g id="node24" class="node">
<title>bench_py</title>
<path fill="#f5f5f5" stroke="#666666" d="M829.5,-60C829.5,-60 707.5,-60 707.5,-60 701.5,-60 695.5,-54 695.5,-48 695.5,-48 695.5,-36 695.5,-36 695.5,-30 701.5,-24 707.5,-24 707.5,-24 829.5,-24 829.5,-24 835.5,-24 841.5,-30 841.5,-36 841.5,-36 841.5,-48 841.5,-48 841.5,-54 835.5,-60 829.5,-60"/>
<text text-anchor="middle" x="768.5" y="-45" font-family="Helvetica,sans-Serif" font-size="10.00">vllm bench serve</text>
<text text-anchor="middle" x="768.5" y="-34" font-family="Helvetica,sans-Serif" font-size="10.00">vllm/benchmarks/serve.py</text>
</g>
<!-- bench_py&#45;&gt;server -->
<g id="edge28" class="edge">
<title>bench_py&#45;&gt;server</title>
<path fill="none" stroke="#666666" stroke-dasharray="1,5" d="M777.47,-60.14C801.84,-107.79 868.93,-246.53 891.5,-371 900.38,-419.98 924.64,-445.86 891.5,-483 864.1,-513.71 741.51,-480.82 707.5,-504 666.76,-531.77 674.87,-556.66 655.5,-602 627.17,-668.3 623.27,-686.39 604.5,-756 592.68,-799.85 601.89,-814.48 583.5,-856 577.06,-870.55 569.29,-870.61 562.5,-885 466.13,-1089.36 575.44,-1200.4 434.5,-1377 419.66,-1395.59 399.65,-1410.55 378.72,-1422.41"/>
<polygon fill="#666666" stroke="#666666" points="377.44,-1420.31 372.49,-1425.83 379.81,-1424.61 377.44,-1420.31"/>
<text text-anchor="middle" x="627.5" y="-758.6" font-family="Helvetica,sans-Serif" font-size="8.00" fill="#666666">HTTP client</text>
</g>
<!-- bench_rs&#45;&gt;server -->
<g id="edge27" class="edge">
<title>bench_rs&#45;&gt;server</title>
<path fill="none" stroke="#666666" stroke-dasharray="5,2" d="M612.64,-68.13C634.54,-77.84 660.06,-88.8 683.5,-98 709.8,-108.33 720.3,-102.87 743.5,-119 768.06,-136.08 1067.1,-322.05 952.5,-483 881.57,-582.61 772.34,-480.38 692.5,-573 635.81,-638.76 679.78,-681.36 656.5,-765 644.92,-806.59 645.85,-819.69 622.5,-856 612.64,-871.33 602.36,-869.07 593.5,-885 484.36,-1081.26 612.14,-1196.53 478.5,-1377 464.29,-1396.19 444.98,-1411.06 423.83,-1422.58"/>
<polygon fill="#666666" stroke="#666666" points="422.58,-1420.48 417.52,-1425.9 424.85,-1424.81 422.58,-1420.48"/>
<text text-anchor="middle" x="681.5" y="-758.6" font-family="Helvetica,sans-Serif" font-size="8.00" fill="#666666">HTTP client</text>
</g>
</g>
</svg>
