<?xml version="1.0" encoding="UTF-8" standalone="no"?>
<!DOCTYPE svg PUBLIC "-//W3C//DTD SVG 1.1//EN"
 "http://www.w3.org/Graphics/SVG/1.1/DTD/svg11.dtd">
<!-- Generated by graphviz version 2.43.0 (0)
 -->
<!-- Title: base_state_machine_intent Pages: 1 -->
<svg width="630pt" height="669pt"
 viewBox="0.00 0.00 629.70 669.00" xmlns="http://www.w3.org/2000/svg" xmlns:xlink="http://www.w3.org/1999/xlink">
<g id="graph0" class="graph" transform="scale(1 1) rotate(0) translate(4 665)">
<title>base_state_machine_intent</title>
<polygon fill="white" stroke="transparent" points="-4,4 -4,-665 625.7,-665 625.7,4 -4,4"/>
<text text-anchor="middle" x="310.85" y="-642.6" font-family="Helvetica,sans-Serif" font-size="18.00">Intent 状态机 · 含 DRY_RUN 预览终态与显式中断恢复</text>
<!-- start -->
<g id="node1" class="node">
<title>start</title>
<ellipse fill="#555555" stroke="#555555" cx="398.7" cy="-627.5" rx="5.5" ry="5.5"/>
</g>
<!-- pending -->
<g id="node2" class="node">
<title>pending</title>
<path fill="#f5f5f5" stroke="#555555" d="M452.2,-581C452.2,-581 345.2,-581 345.2,-581 339.2,-581 333.2,-575 333.2,-569 333.2,-569 333.2,-557 333.2,-557 333.2,-551 339.2,-545 345.2,-545 345.2,-545 452.2,-545 452.2,-545 458.2,-545 464.2,-551 464.2,-557 464.2,-557 464.2,-569 464.2,-569 464.2,-575 458.2,-581 452.2,-581"/>
<text text-anchor="middle" x="398.7" y="-566.4" font-family="Helvetica,sans-Serif" font-size="12.00">PENDING</text>
<text text-anchor="middle" x="398.7" y="-553.4" font-family="Helvetica,sans-Serif" font-size="12.00">已持久化，尚未处理</text>
</g>
<!-- start&#45;&gt;pending -->
<g id="edge1" class="edge">
<title>start&#45;&gt;pending</title>
<path fill="none" stroke="#666666" d="M398.7,-621.6C398.7,-614.99 398.7,-602.72 398.7,-591.19"/>
<polygon fill="#666666" stroke="#666666" points="402.2,-591.01 398.7,-581.01 395.2,-591.01 402.2,-591.01"/>
</g>
<!-- validated -->
<g id="node3" class="node">
<title>validated</title>
<path fill="#f5f5f5" stroke="#555555" d="M230.2,-494C230.2,-494 171.2,-494 171.2,-494 165.2,-494 159.2,-488 159.2,-482 159.2,-482 159.2,-470 159.2,-470 159.2,-464 165.2,-458 171.2,-458 171.2,-458 230.2,-458 230.2,-458 236.2,-458 242.2,-464 242.2,-470 242.2,-470 242.2,-482 242.2,-482 242.2,-488 236.2,-494 230.2,-494"/>
<text text-anchor="middle" x="200.7" y="-472.9" font-family="Helvetica,sans-Serif" font-size="12.00">VALIDATED</text>
</g>
<!-- pending&#45;&gt;validated -->
<g id="edge2" class="edge">
<title>pending&#45;&gt;validated</title>
<path fill="none" stroke="#666666" d="M333.2,-558.71C281.61,-554.59 215.67,-545.39 198.7,-525 193.99,-519.33 192.77,-511.86 193.19,-504.5"/>
<polygon fill="#666666" stroke="#666666" points="196.69,-504.78 194.69,-494.38 189.76,-503.76 196.69,-504.78"/>
<text text-anchor="middle" x="242.7" y="-517" font-family="Helvetica,sans-Serif" font-size="10.00">plan 与校验通过</text>
</g>
<!-- rejected -->
<g id="node5" class="node">
<title>rejected</title>
<path fill="#e8f1ff" stroke="#3264a8" d="M336.7,-417C336.7,-417 284.7,-417 284.7,-417 278.7,-417 272.7,-411 272.7,-405 272.7,-405 272.7,-393 272.7,-393 272.7,-387 278.7,-381 284.7,-381 284.7,-381 336.7,-381 336.7,-381 342.7,-381 348.7,-387 348.7,-393 348.7,-393 348.7,-405 348.7,-405 348.7,-411 342.7,-417 336.7,-417"/>
<text text-anchor="middle" x="310.7" y="-402.4" font-family="Helvetica,sans-Serif" font-size="12.00">REJECTED</text>
<text text-anchor="middle" x="310.7" y="-389.4" font-family="Helvetica,sans-Serif" font-size="12.00">终态</text>
</g>
<!-- pending&#45;&gt;rejected -->
<g id="edge7" class="edge">
<title>pending&#45;&gt;rejected</title>
<path fill="none" stroke="#666666" d="M371.7,-544.85C355.03,-532.74 334.78,-514.98 323.7,-494 312.8,-473.35 309.98,-446.75 309.64,-427.12"/>
<polygon fill="#666666" stroke="#666666" points="313.14,-427.02 309.67,-417.01 306.14,-427 313.14,-427.02"/>
<text text-anchor="middle" x="380.7" y="-479" font-family="Helvetica,sans-Serif" font-size="10.00">plan/validate/risk 失败</text>
<text text-anchor="middle" x="380.7" y="-468" font-family="Helvetica,sans-Serif" font-size="10.00">未发出任何订单</text>
</g>
<!-- dryrun -->
<g id="node6" class="node">
<title>dryrun</title>
<path fill="#e8f1ff" stroke="#3264a8" d="M513.2,-494C513.2,-494 464.2,-494 464.2,-494 458.2,-494 452.2,-488 452.2,-482 452.2,-482 452.2,-470 452.2,-470 452.2,-464 458.2,-458 464.2,-458 464.2,-458 513.2,-458 513.2,-458 519.2,-458 525.2,-464 525.2,-470 525.2,-470 525.2,-482 525.2,-482 525.2,-488 519.2,-494 513.2,-494"/>
<text text-anchor="middle" x="488.7" y="-479.4" font-family="Helvetica,sans-Serif" font-size="12.00">DRY_RUN</text>
<text text-anchor="middle" x="488.7" y="-466.4" font-family="Helvetica,sans-Serif" font-size="12.00">预览终态</text>
</g>
<!-- pending&#45;&gt;dryrun -->
<g id="edge3" class="edge">
<title>pending&#45;&gt;dryrun</title>
<path fill="none" stroke="#666666" d="M416.92,-544.8C430.21,-532.24 448.42,-515.05 463.16,-501.12"/>
<polygon fill="#666666" stroke="#666666" points="465.65,-503.59 470.52,-494.18 460.84,-498.5 465.65,-503.59"/>
<text text-anchor="middle" x="474.7" y="-517" font-family="Helvetica,sans-Serif" font-size="10.00">预览完成</text>
</g>
<!-- rolling -->
<g id="node10" class="node">
<title>rolling</title>
<path fill="#f5f5f5" stroke="#555555" d="M251.7,-232C251.7,-232 167.7,-232 167.7,-232 161.7,-232 155.7,-226 155.7,-220 155.7,-220 155.7,-208 155.7,-208 155.7,-202 161.7,-196 167.7,-196 167.7,-196 251.7,-196 251.7,-196 257.7,-196 263.7,-202 263.7,-208 263.7,-208 263.7,-220 263.7,-220 263.7,-226 257.7,-232 251.7,-232"/>
<text text-anchor="middle" x="209.7" y="-210.9" font-family="Helvetica,sans-Serif" font-size="12.00">ROLLING_BACK</text>
</g>
<!-- pending&#45;&gt;rolling -->
<g id="edge4" class="edge">
<title>pending&#45;&gt;rolling</title>
<path fill="none" stroke="#666666" stroke-dasharray="5,2" d="M464.33,-555.58C512.55,-546.81 569.7,-526.07 569.7,-477 569.7,-477 569.7,-477 569.7,-311 569.7,-250.51 377.57,-227.17 274.03,-218.98"/>
<polygon fill="#666666" stroke="#666666" points="274.23,-215.48 263.99,-218.21 273.69,-222.46 274.23,-215.48"/>
<text text-anchor="middle" x="595.7" y="-396.5" font-family="Helvetica,sans-Serif" font-size="10.00">显式恢复</text>
</g>
<!-- executing -->
<g id="node4" class="node">
<title>executing</title>
<path fill="#f5f5f5" stroke="#555555" d="M231.7,-417C231.7,-417 169.7,-417 169.7,-417 163.7,-417 157.7,-411 157.7,-405 157.7,-405 157.7,-393 157.7,-393 157.7,-387 163.7,-381 169.7,-381 169.7,-381 231.7,-381 231.7,-381 237.7,-381 243.7,-387 243.7,-393 243.7,-393 243.7,-405 243.7,-405 243.7,-411 237.7,-417 231.7,-417"/>
<text text-anchor="middle" x="200.7" y="-395.9" font-family="Helvetica,sans-Serif" font-size="12.00">EXECUTING</text>
</g>
<!-- validated&#45;&gt;executing -->
<g id="edge8" class="edge">
<title>validated&#45;&gt;executing</title>
<path fill="none" stroke="#666666" d="M200.7,-457.98C200.7,-448.94 200.7,-437.6 200.7,-427.35"/>
<polygon fill="#666666" stroke="#666666" points="204.2,-427.21 200.7,-417.21 197.2,-427.21 204.2,-427.21"/>
</g>
<!-- validated&#45;&gt;rejected -->
<g id="edge9" class="edge">
<title>validated&#45;&gt;rejected</title>
<path fill="none" stroke="#666666" d="M225.66,-457.98C240.89,-447.6 260.54,-434.2 277.11,-422.9"/>
<polygon fill="#666666" stroke="#666666" points="279.17,-425.74 285.46,-417.21 275.23,-419.95 279.17,-425.74"/>
</g>
<!-- validated&#45;&gt;rolling -->
<g id="edge5" class="edge">
<title>validated&#45;&gt;rolling</title>
<path fill="none" stroke="#666666" stroke-dasharray="5,2" d="M159.08,-460.35C95.57,-435.14 -16.29,-378.04 2.7,-294 7.26,-273.83 6.38,-264.69 22.7,-252 41.63,-237.29 99.02,-227.38 145.28,-221.55"/>
<polygon fill="#666666" stroke="#666666" points="145.76,-225.01 155.26,-220.33 144.91,-218.06 145.76,-225.01"/>
<text text-anchor="middle" x="40.7" y="-353" font-family="Helvetica,sans-Serif" font-size="10.00">显式恢复</text>
</g>
<!-- allfilled -->
<g id="node7" class="node">
<title>allfilled</title>
<path fill="#eaf7ed" stroke="#3c7a4a" stroke-width="2" d="M364.2,-330C364.2,-330 303.2,-330 303.2,-330 297.2,-330 291.2,-324 291.2,-318 291.2,-318 291.2,-306 291.2,-306 291.2,-300 297.2,-294 303.2,-294 303.2,-294 364.2,-294 364.2,-294 370.2,-294 376.2,-300 376.2,-306 376.2,-306 376.2,-318 376.2,-318 376.2,-324 370.2,-330 364.2,-330"/>
<text text-anchor="middle" x="333.7" y="-315.4" font-family="Helvetica,sans-Serif" font-size="12.00">ALL_FILLED</text>
<text text-anchor="middle" x="333.7" y="-302.4" font-family="Helvetica,sans-Serif" font-size="12.00">终态</text>
</g>
<!-- executing&#45;&gt;allfilled -->
<g id="edge10" class="edge">
<title>executing&#45;&gt;allfilled</title>
<path fill="none" stroke="#666666" d="M227.62,-380.8C247.99,-367.78 276.15,-349.78 298.34,-335.6"/>
<polygon fill="#666666" stroke="#666666" points="300.29,-338.51 306.83,-330.18 296.52,-332.61 300.29,-338.51"/>
<text text-anchor="middle" x="339.7" y="-353" font-family="Helvetica,sans-Serif" font-size="10.00">每条腿都在容差内成交</text>
</g>
<!-- partial -->
<g id="node8" class="node">
<title>partial</title>
<path fill="#f5f5f5" stroke="#555555" d="M505.7,-330C505.7,-330 417.7,-330 417.7,-330 411.7,-330 405.7,-324 405.7,-318 405.7,-318 405.7,-306 405.7,-306 405.7,-300 411.7,-294 417.7,-294 417.7,-294 505.7,-294 505.7,-294 511.7,-294 517.7,-300 517.7,-306 517.7,-306 517.7,-318 517.7,-318 517.7,-324 511.7,-330 505.7,-330"/>
<text text-anchor="middle" x="461.7" y="-308.9" font-family="Helvetica,sans-Serif" font-size="12.00">PARTIAL_FILLED</text>
</g>
<!-- executing&#45;&gt;partial -->
<g id="edge11" class="edge">
<title>executing&#45;&gt;partial</title>
<path fill="none" stroke="#666666" d="M243.78,-384.36C248.45,-383.12 253.16,-381.97 257.7,-381 324.78,-366.71 348.73,-390.37 410.7,-361 422.26,-355.52 432.93,-346.44 441.49,-337.65"/>
<polygon fill="#666666" stroke="#666666" points="444.25,-339.82 448.44,-330.08 439.1,-335.08 444.25,-339.82"/>
<text text-anchor="middle" x="453.7" y="-353" font-family="Helvetica,sans-Serif" font-size="10.00">部分成交</text>
</g>
<!-- timeout -->
<g id="node9" class="node">
<title>timeout</title>
<path fill="#fff3df" stroke="#a66a14" d="M139.7,-330C139.7,-330 29.7,-330 29.7,-330 23.7,-330 17.7,-324 17.7,-318 17.7,-318 17.7,-306 17.7,-306 17.7,-300 23.7,-294 29.7,-294 29.7,-294 139.7,-294 139.7,-294 145.7,-294 151.7,-300 151.7,-306 151.7,-306 151.7,-318 151.7,-318 151.7,-324 145.7,-330 139.7,-330"/>
<text text-anchor="middle" x="84.7" y="-308.9" font-family="Helvetica,sans-Serif" font-size="12.00">EXECUTE_TIMEOUT</text>
</g>
<!-- executing&#45;&gt;timeout -->
<g id="edge12" class="edge">
<title>executing&#45;&gt;timeout</title>
<path fill="none" stroke="#666666" d="M177.23,-380.8C159.7,-367.95 135.55,-350.26 116.32,-336.17"/>
<polygon fill="#666666" stroke="#666666" points="118.28,-333.26 108.14,-330.18 114.14,-338.91 118.28,-333.26"/>
</g>
<!-- executing&#45;&gt;rolling -->
<g id="edge6" class="edge">
<title>executing&#45;&gt;rolling</title>
<path fill="none" stroke="#666666" stroke-dasharray="5,2" d="M201.55,-380.78C203.11,-348.96 206.47,-280.69 208.35,-242.43"/>
<polygon fill="#666666" stroke="#666666" points="211.87,-242.2 208.86,-232.04 204.88,-241.85 211.87,-242.2"/>
<text text-anchor="middle" x="232.7" y="-309.5" font-family="Helvetica,sans-Serif" font-size="10.00">显式恢复</text>
</g>
<!-- partial&#45;&gt;rolling -->
<g id="edge13" class="edge">
<title>partial&#45;&gt;rolling</title>
<path fill="none" stroke="#666666" d="M416.94,-293.95C374.16,-277.65 309.59,-253.05 263.92,-235.65"/>
<polygon fill="#666666" stroke="#666666" points="265.06,-232.34 254.47,-232.05 262.57,-238.89 265.06,-232.34"/>
</g>
<!-- timeout&#45;&gt;rolling -->
<g id="edge14" class="edge">
<title>timeout&#45;&gt;rolling</title>
<path fill="none" stroke="#666666" d="M54.31,-293.94C37.44,-282.29 22.01,-266.4 33.7,-252 47.76,-234.68 100.94,-225.17 145.2,-220.14"/>
<polygon fill="#666666" stroke="#666666" points="145.79,-223.6 155.36,-219.05 145.04,-216.64 145.79,-223.6"/>
<text text-anchor="middle" x="110.7" y="-266" font-family="Helvetica,sans-Serif" font-size="10.00">两条路径同等对待</text>
<text text-anchor="middle" x="110.7" y="-255" font-family="Helvetica,sans-Serif" font-size="10.00">共同点是都可能留下净敞口</text>
</g>
<!-- rolled -->
<g id="node11" class="node">
<title>rolled</title>
<path fill="#eaf7ed" stroke="#3c7a4a" stroke-width="2" d="M187.2,-139.5C187.2,-139.5 108.2,-139.5 108.2,-139.5 102.2,-139.5 96.2,-133.5 96.2,-127.5 96.2,-127.5 96.2,-115.5 96.2,-115.5 96.2,-109.5 102.2,-103.5 108.2,-103.5 108.2,-103.5 187.2,-103.5 187.2,-103.5 193.2,-103.5 199.2,-109.5 199.2,-115.5 199.2,-115.5 199.2,-127.5 199.2,-127.5 199.2,-133.5 193.2,-139.5 187.2,-139.5"/>
<text text-anchor="middle" x="147.7" y="-124.9" font-family="Helvetica,sans-Serif" font-size="12.00">ROLLED_BACK</text>
<text text-anchor="middle" x="147.7" y="-111.9" font-family="Helvetica,sans-Serif" font-size="12.00">终态</text>
</g>
<!-- rolling&#45;&gt;rolled -->
<g id="edge15" class="edge">
<title>rolling&#45;&gt;rolled</title>
<path fill="none" stroke="#666666" d="M182.77,-195.78C175.74,-190.2 168.74,-183.48 163.7,-176 158.41,-168.14 154.83,-158.48 152.42,-149.54"/>
<polygon fill="#666666" stroke="#666666" points="155.77,-148.48 150.1,-139.53 148.95,-150.07 155.77,-148.48"/>
<text text-anchor="middle" x="208.7" y="-168" font-family="Helvetica,sans-Serif" font-size="10.00">补偿单全部成交</text>
</g>
<!-- failed -->
<g id="node12" class="node">
<title>failed</title>
<path fill="#fdecea" stroke="#b3261e" stroke-width="2" d="M374.7,-145C374.7,-145 240.7,-145 240.7,-145 234.7,-145 228.7,-139 228.7,-133 228.7,-133 228.7,-110 228.7,-110 228.7,-104 234.7,-98 240.7,-98 240.7,-98 374.7,-98 374.7,-98 380.7,-98 386.7,-104 386.7,-110 386.7,-110 386.7,-133 386.7,-133 386.7,-139 380.7,-145 374.7,-145"/>
<text text-anchor="middle" x="307.7" y="-131.4" font-family="Helvetica,sans-Serif" font-size="12.00">ROLLED_BACK_FAILED</text>
<text text-anchor="middle" x="307.7" y="-118.4" font-family="Helvetica,sans-Serif" font-size="12.00">终态 · BLOCKING_STATE</text>
<text text-anchor="middle" x="307.7" y="-105.4" font-family="Helvetica,sans-Serif" font-size="12.00">阻塞所有后续 Intent</text>
</g>
<!-- rolling&#45;&gt;failed -->
<g id="edge16" class="edge">
<title>rolling&#45;&gt;failed</title>
<path fill="none" stroke="#666666" d="M232.71,-195.94C240.52,-189.88 249.17,-182.85 256.7,-176 264.68,-168.75 272.91,-160.49 280.37,-152.68"/>
<polygon fill="#666666" stroke="#666666" points="283.23,-154.74 287.54,-145.06 278.14,-149.94 283.23,-154.74"/>
<text text-anchor="middle" x="293.7" y="-168" font-family="Helvetica,sans-Serif" font-size="10.00">补偿失败</text>
</g>
<!-- resolved -->
<g id="node13" class="node">
<title>resolved</title>
<path fill="#eaf7ed" stroke="#3c7a4a" d="M364.2,-36C364.2,-36 251.2,-36 251.2,-36 245.2,-36 239.2,-30 239.2,-24 239.2,-24 239.2,-12 239.2,-12 239.2,-6 245.2,0 251.2,0 251.2,0 364.2,0 364.2,0 370.2,0 376.2,-6 376.2,-12 376.2,-12 376.2,-24 376.2,-24 376.2,-30 370.2,-36 364.2,-36"/>
<text text-anchor="middle" x="307.7" y="-21.4" font-family="Helvetica,sans-Serif" font-size="12.00">RESOLVED_MANUAL</text>
<text text-anchor="middle" x="307.7" y="-8.4" font-family="Helvetica,sans-Serif" font-size="12.00">终态</text>
</g>
<!-- failed&#45;&gt;resolved -->
<g id="edge17" class="edge">
<title>failed&#45;&gt;resolved</title>
<path fill="none" stroke="#b3261e" stroke-width="2" d="M307.7,-97.97C307.7,-82.79 307.7,-62.66 307.7,-46.53"/>
<polygon fill="#b3261e" stroke="#b3261e" stroke-width="2" points="311.2,-46.1 307.7,-36.1 304.2,-46.1 311.2,-46.1"/>
<text text-anchor="middle" x="390.7" y="-70" font-family="Helvetica,sans-Serif" font-size="10.00" fill="#b3261e">onefill ack</text>
<text text-anchor="middle" x="390.7" y="-59" font-family="Helvetica,sans-Serif" font-size="10.00" fill="#b3261e">唯一出边 —— 不存在自动重试</text>
</g>
</g>
</svg>
