<?xml version="1.0" encoding="UTF-8" standalone="no"?>
<!DOCTYPE svg PUBLIC "-//W3C//DTD SVG 1.1//EN"
 "http://www.w3.org/Graphics/SVG/1.1/DTD/svg11.dtd">
<!-- Generated by graphviz version 2.43.0 (0)
 -->
<!-- Title: base_coordination_pipeline Pages: 1 -->
<svg width="1288pt" height="828pt"
 viewBox="0.00 0.00 1288.00 827.75" xmlns="http://www.w3.org/2000/svg" xmlns:xlink="http://www.w3.org/1999/xlink">
<g id="graph0" class="graph" transform="scale(1 1) rotate(0) translate(4 823.75)">
<title>base_coordination_pipeline</title>
<polygon fill="white" stroke="transparent" points="-4,4 -4,-823.75 1284,-823.75 1284,4 -4,4"/>
<text text-anchor="middle" x="640" y="-801.35" font-family="Helvetica,sans-Serif" font-size="18.00">协调流程 · src/coordinator —— Orchestrator.submit(intent) 的五个阶段</text>
<g id="clust1" class="cluster">
<title>cluster_gate</title>
<polygon fill="#fff3df" stroke="#a66a14" stroke-dasharray="5,2" points="8,-540.75 8,-726.75 652,-726.75 652,-540.75 8,-540.75"/>
<text text-anchor="middle" x="330" y="-712.35" font-family="Helvetica,sans-Serif" font-size="13.00">前置门禁 —— 阻断态检查</text>
</g>
<g id="clust2" class="cluster">
<title>cluster_pure</title>
<polygon fill="#eaf7ed" stroke="#3c7a4a" stroke-dasharray="5,2" points="660,-331.75 660,-621.75 965,-621.75 965,-331.75 660,-331.75"/>
<text text-anchor="middle" x="812.5" y="-607.35" font-family="Helvetica,sans-Serif" font-size="13.00">无副作用阶段 —— Planner / Validator 可纯单测</text>
</g>
<g id="clust3" class="cluster">
<title>cluster_effect</title>
<polygon fill="#f3eafd" stroke="#71449a" stroke-dasharray="5,2" points="828,-111.75 828,-300.75 1166,-300.75 1166,-111.75 828,-111.75"/>
<text text-anchor="middle" x="997" y="-286.35" font-family="Helvetica,sans-Serif" font-size="13.00">有副作用阶段 —— 需 MockExchange + 内存 SQLite</text>
</g>
<!-- intent -->
<g id="node1" class="node">
<title>intent</title>
<path fill="#f5f5f5" stroke="#555555" d="M447,-791.75C447,-791.75 213,-791.75 213,-791.75 207,-791.75 201,-785.75 201,-779.75 201,-779.75 201,-767.75 201,-767.75 201,-761.75 207,-755.75 213,-755.75 213,-755.75 447,-755.75 447,-755.75 453,-755.75 459,-761.75 459,-767.75 459,-767.75 459,-779.75 459,-779.75 459,-785.75 453,-791.75 447,-791.75"/>
<text text-anchor="middle" x="330" y="-777.35" font-family="Helvetica,sans-Serif" font-size="13.00">Intent</text>
<text text-anchor="middle" x="330" y="-763.35" font-family="Helvetica,sans-Serif" font-size="13.00">（用户输入，不含 venue 原生 symbol）</text>
</g>
<!-- block -->
<g id="node2" class="node">
<title>block</title>
<polygon fill="#fff3df" stroke="#a66a14" points="330,-696.75 15.6,-678.75 330,-660.75 644.4,-678.75 330,-696.75"/>
<text text-anchor="middle" x="330" y="-675.35" font-family="Helvetica,sans-Serif" font-size="13.00">count_intents_with_status(BLOCKING_STATE) &gt; 0 ?</text>
</g>
<!-- intent&#45;&gt;block -->
<g id="edge1" class="edge">
<title>intent&#45;&gt;block</title>
<path fill="none" stroke="#666666" d="M330,-755.69C330,-742.14 330,-722.93 330,-707.22"/>
<polygon fill="#666666" stroke="#666666" points="333.5,-707.01 330,-697.01 326.5,-707.01 333.5,-707.01"/>
</g>
<!-- rejected0 -->
<g id="node3" class="node">
<title>rejected0</title>
<path fill="#e8f1ff" stroke="#3264a8" d="M412,-584.75C412,-584.75 248,-584.75 248,-584.75 242,-584.75 236,-578.75 236,-572.75 236,-572.75 236,-560.75 236,-560.75 236,-554.75 242,-548.75 248,-548.75 248,-548.75 412,-548.75 412,-548.75 418,-548.75 424,-554.75 424,-560.75 424,-560.75 424,-572.75 424,-572.75 424,-578.75 418,-584.75 412,-584.75"/>
<text text-anchor="middle" x="330" y="-570.35" font-family="Helvetica,sans-Serif" font-size="13.00">REJECTED</text>
<text text-anchor="middle" x="330" y="-556.35" font-family="Helvetica,sans-Serif" font-size="13.00">人工介入前不再接受新 Intent</text>
</g>
<!-- block&#45;&gt;rejected0 -->
<g id="edge2" class="edge">
<title>block&#45;&gt;rejected0</title>
<path fill="none" stroke="#666666" d="M330,-660.56C330,-642.96 330,-615.36 330,-594.82"/>
<polygon fill="#666666" stroke="#666666" points="333.5,-594.82 330,-584.82 326.5,-594.82 333.5,-594.82"/>
<text text-anchor="middle" x="336.5" y="-632.75" font-family="Helvetica,sans-Serif" font-size="10.00">是</text>
</g>
<!-- planner -->
<g id="node4" class="node">
<title>planner</title>
<path fill="#ffffff" stroke="#3c7a4a" d="M846,-591.75C846,-591.75 680,-591.75 680,-591.75 674,-591.75 668,-585.75 668,-579.75 668,-579.75 668,-553.75 668,-553.75 668,-547.75 674,-541.75 680,-541.75 680,-541.75 846,-541.75 846,-541.75 852,-541.75 858,-547.75 858,-553.75 858,-553.75 858,-579.75 858,-579.75 858,-585.75 852,-591.75 846,-591.75"/>
<text text-anchor="middle" x="763" y="-577.35" font-family="Helvetica,sans-Serif" font-size="13.00">Planner.plan()</text>
<text text-anchor="middle" x="763" y="-563.35" font-family="Helvetica,sans-Serif" font-size="13.00">planner.py</text>
<text text-anchor="middle" x="763" y="-549.35" font-family="Helvetica,sans-Serif" font-size="13.00">解析 Instrument · 取 Quote</text>
</g>
<!-- block&#45;&gt;planner -->
<g id="edge3" class="edge">
<title>block&#45;&gt;planner</title>
<path fill="none" stroke="#666666" d="M442.53,-667.16C506.82,-658.99 588.27,-645.02 658,-621.75 677.21,-615.34 697.23,-605.84 714.57,-596.58"/>
<polygon fill="#666666" stroke="#666666" points="716.27,-599.64 723.38,-591.78 712.92,-593.5 716.27,-599.64"/>
<text text-anchor="middle" x="638.5" y="-632.75" font-family="Helvetica,sans-Serif" font-size="10.00">否</text>
</g>
<!-- validator -->
<g id="node5" class="node">
<title>validator</title>
<path fill="#ffffff" stroke="#3c7a4a" d="M858.5,-490.75C858.5,-490.75 739.5,-490.75 739.5,-490.75 733.5,-490.75 727.5,-484.75 727.5,-478.75 727.5,-478.75 727.5,-452.75 727.5,-452.75 727.5,-446.75 733.5,-440.75 739.5,-440.75 739.5,-440.75 858.5,-440.75 858.5,-440.75 864.5,-440.75 870.5,-446.75 870.5,-452.75 870.5,-452.75 870.5,-478.75 870.5,-478.75 870.5,-484.75 864.5,-490.75 858.5,-490.75"/>
<text text-anchor="middle" x="799" y="-476.35" font-family="Helvetica,sans-Serif" font-size="13.00">Validator.validate()</text>
<text text-anchor="middle" x="799" y="-462.35" font-family="Helvetica,sans-Serif" font-size="13.00">validator.py</text>
<text text-anchor="middle" x="799" y="-448.35" font-family="Helvetica,sans-Serif" font-size="13.00">venue 侧预检</text>
</g>
<!-- planner&#45;&gt;validator -->
<g id="edge5" class="edge">
<title>planner&#45;&gt;validator</title>
<path fill="none" stroke="#666666" d="M771.81,-541.53C776.3,-529.19 781.83,-513.97 786.73,-500.5"/>
<polygon fill="#666666" stroke="#666666" points="790.03,-501.66 790.16,-491.06 783.45,-499.26 790.03,-501.66"/>
<text text-anchor="middle" x="793" y="-513.75" font-family="Helvetica,sans-Serif" font-size="10.00">Plan</text>
</g>
<!-- store -->
<g id="node9" class="node">
<title>store</title>
<path fill="#fff3df" stroke="#a66a14" d="M486,-62.4C486,-65.83 451.94,-68.63 410,-68.63 368.06,-68.63 334,-65.83 334,-62.4 334,-62.4 334,-6.35 334,-6.35 334,-2.92 368.06,-0.12 410,-0.12 451.94,-0.12 486,-2.92 486,-6.35 486,-6.35 486,-62.4 486,-62.4"/>
<path fill="none" stroke="#a66a14" d="M486,-62.4C486,-58.96 451.94,-56.17 410,-56.17 368.06,-56.17 334,-58.96 334,-62.4"/>
<text text-anchor="middle" x="410" y="-44.98" font-family="Helvetica,sans-Serif" font-size="13.00">PersistenceStore</text>
<text text-anchor="middle" x="410" y="-30.98" font-family="Helvetica,sans-Serif" font-size="13.00">persistence/store.py</text>
<text text-anchor="middle" x="410" y="-16.98" font-family="Helvetica,sans-Serif" font-size="13.00">SQLite + JSONL</text>
</g>
<!-- planner&#45;&gt;store -->
<g id="edge18" class="edge">
<title>planner&#45;&gt;store</title>
<path fill="none" stroke="#666666" stroke-dasharray="5,2" d="M752.69,-541.52C747.96,-531.57 741.86,-520.2 735,-510.75 727.61,-500.58 719.81,-502.36 715,-490.75 706.5,-470.22 700.43,-457.53 715,-440.75 735.75,-416.85 826.11,-431.16 856,-420.75 881.77,-411.78 895.42,-413.42 909,-389.75 921.83,-367.39 926.72,-350.47 909,-331.75 892.32,-314.13 709.42,-335.53 691,-319.75 656.84,-290.49 701.09,-253.25 670,-220.75 607.48,-155.4 542.59,-227.52 473,-169.75 445.13,-146.61 428.87,-108.35 419.87,-78.56"/>
<polygon fill="#666666" stroke="#666666" points="423.2,-77.48 417.09,-68.82 416.47,-79.4 423.2,-77.48"/>
<text text-anchor="middle" x="745" y="-311.75" font-family="Helvetica,sans-Serif" font-size="10.00">读 Instrument / Quote</text>
</g>
<!-- rej_plan -->
<g id="node11" class="node">
<title>rej_plan</title>
<path fill="#e8f1ff" stroke="#3264a8" d="M638.5,-483.75C638.5,-483.75 581.5,-483.75 581.5,-483.75 575.5,-483.75 569.5,-477.75 569.5,-471.75 569.5,-471.75 569.5,-459.75 569.5,-459.75 569.5,-453.75 575.5,-447.75 581.5,-447.75 581.5,-447.75 638.5,-447.75 638.5,-447.75 644.5,-447.75 650.5,-453.75 650.5,-459.75 650.5,-459.75 650.5,-471.75 650.5,-471.75 650.5,-477.75 644.5,-483.75 638.5,-483.75"/>
<text text-anchor="middle" x="610" y="-462.35" font-family="Helvetica,sans-Serif" font-size="13.00">REJECTED</text>
</g>
<!-- planner&#45;&gt;rej_plan -->
<g id="edge4" class="edge">
<title>planner&#45;&gt;rej_plan</title>
<path fill="none" stroke="#666666" d="M670.97,-541.67C645.3,-534.15 623.21,-526.57 619,-521.75 612.41,-514.21 609.68,-503.77 608.76,-494.01"/>
<polygon fill="#666666" stroke="#666666" points="612.25,-493.72 608.38,-483.86 605.26,-493.98 612.25,-493.72"/>
<text text-anchor="middle" x="676" y="-513.75" font-family="Helvetica,sans-Serif" font-size="10.00">is_acceptable == false</text>
</g>
<!-- risk -->
<g id="node6" class="node">
<title>risk</title>
<path fill="#ffffff" stroke="#3c7a4a" d="M884.5,-389.75C884.5,-389.75 711.5,-389.75 711.5,-389.75 705.5,-389.75 699.5,-383.75 699.5,-377.75 699.5,-377.75 699.5,-351.75 699.5,-351.75 699.5,-345.75 705.5,-339.75 711.5,-339.75 711.5,-339.75 884.5,-339.75 884.5,-339.75 890.5,-339.75 896.5,-345.75 896.5,-351.75 896.5,-351.75 896.5,-377.75 896.5,-377.75 896.5,-383.75 890.5,-389.75 884.5,-389.75"/>
<text text-anchor="middle" x="798" y="-375.35" font-family="Helvetica,sans-Serif" font-size="13.00">RiskValidator.check()</text>
<text text-anchor="middle" x="798" y="-361.35" font-family="Helvetica,sans-Serif" font-size="13.00">risk.py</text>
<text text-anchor="middle" x="798" y="-347.35" font-family="Helvetica,sans-Serif" font-size="13.00">名义上限 · 当日亏损 · 单所敞口</text>
</g>
<!-- validator&#45;&gt;risk -->
<g id="edge7" class="edge">
<title>validator&#45;&gt;risk</title>
<path fill="none" stroke="#666666" d="M798.76,-440.53C798.63,-428.43 798.48,-413.56 798.35,-400.29"/>
<polygon fill="#666666" stroke="#666666" points="801.85,-400.03 798.25,-390.06 794.85,-400.1 801.85,-400.03"/>
<text text-anchor="middle" x="824" y="-412.75" font-family="Helvetica,sans-Serif" font-size="10.00">校验通过</text>
</g>
<!-- rej_valid -->
<g id="node12" class="node">
<title>rej_valid</title>
<path fill="#e8f1ff" stroke="#3264a8" d="M1093.5,-382.75C1093.5,-382.75 1036.5,-382.75 1036.5,-382.75 1030.5,-382.75 1024.5,-376.75 1024.5,-370.75 1024.5,-370.75 1024.5,-358.75 1024.5,-358.75 1024.5,-352.75 1030.5,-346.75 1036.5,-346.75 1036.5,-346.75 1093.5,-346.75 1093.5,-346.75 1099.5,-346.75 1105.5,-352.75 1105.5,-358.75 1105.5,-358.75 1105.5,-370.75 1105.5,-370.75 1105.5,-376.75 1099.5,-382.75 1093.5,-382.75"/>
<text text-anchor="middle" x="1065" y="-361.35" font-family="Helvetica,sans-Serif" font-size="13.00">REJECTED</text>
</g>
<!-- validator&#45;&gt;rej_valid -->
<g id="edge6" class="edge">
<title>validator&#45;&gt;rej_valid</title>
<path fill="none" stroke="#666666" d="M870.8,-458.84C911.9,-453.21 963.4,-442.21 1005,-420.75 1019.69,-413.17 1033.49,-401.03 1044.14,-390.08"/>
<polygon fill="#666666" stroke="#666666" points="1046.71,-392.46 1050.98,-382.76 1041.59,-387.68 1046.71,-392.46"/>
<text text-anchor="middle" x="1034" y="-412.75" font-family="Helvetica,sans-Serif" font-size="10.00">失败</text>
</g>
<!-- executor -->
<g id="node7" class="node">
<title>executor</title>
<path fill="#ffffff" stroke="#71449a" d="M1046,-270.75C1046,-270.75 848,-270.75 848,-270.75 842,-270.75 836,-264.75 836,-258.75 836,-258.75 836,-232.75 836,-232.75 836,-226.75 842,-220.75 848,-220.75 848,-220.75 1046,-220.75 1046,-220.75 1052,-220.75 1058,-226.75 1058,-232.75 1058,-232.75 1058,-258.75 1058,-258.75 1058,-264.75 1052,-270.75 1046,-270.75"/>
<text text-anchor="middle" x="947" y="-256.35" font-family="Helvetica,sans-Serif" font-size="13.00">Executor.execute()</text>
<text text-anchor="middle" x="947" y="-242.35" font-family="Helvetica,sans-Serif" font-size="13.00">executor.py</text>
<text text-anchor="middle" x="947" y="-228.35" font-family="Helvetica,sans-Serif" font-size="13.00">固定保护价 / 临发单预检 / 顺序拆单</text>
</g>
<!-- risk&#45;&gt;executor -->
<g id="edge9" class="edge">
<title>risk&#45;&gt;executor</title>
<path fill="none" stroke="#666666" d="M828.87,-339.51C851.92,-321.41 883.58,-296.55 908.32,-277.12"/>
<polygon fill="#666666" stroke="#666666" points="910.72,-279.69 916.42,-270.76 906.4,-274.18 910.72,-279.69"/>
<text text-anchor="middle" x="915" y="-311.75" font-family="Helvetica,sans-Serif" font-size="10.00">通过 → VALIDATED</text>
</g>
<!-- rej_risk -->
<g id="node13" class="node">
<title>rej_risk</title>
<path fill="#e8f1ff" stroke="#3264a8" d="M645.5,-263.75C645.5,-263.75 588.5,-263.75 588.5,-263.75 582.5,-263.75 576.5,-257.75 576.5,-251.75 576.5,-251.75 576.5,-239.75 576.5,-239.75 576.5,-233.75 582.5,-227.75 588.5,-227.75 588.5,-227.75 645.5,-227.75 645.5,-227.75 651.5,-227.75 657.5,-233.75 657.5,-239.75 657.5,-239.75 657.5,-251.75 657.5,-251.75 657.5,-257.75 651.5,-263.75 645.5,-263.75"/>
<text text-anchor="middle" x="617" y="-242.35" font-family="Helvetica,sans-Serif" font-size="13.00">REJECTED</text>
</g>
<!-- risk&#45;&gt;rej_risk -->
<g id="edge8" class="edge">
<title>risk&#45;&gt;rej_risk</title>
<path fill="none" stroke="#666666" d="M699.23,-355.58C674.74,-349.06 650.52,-338.07 633,-319.75 621.42,-307.64 617.45,-289.16 616.36,-273.82"/>
<polygon fill="#666666" stroke="#666666" points="619.86,-273.7 616.01,-263.83 612.86,-273.94 619.86,-273.7"/>
<text text-anchor="middle" x="646" y="-311.75" font-family="Helvetica,sans-Serif" font-size="10.00">失败</text>
</g>
<!-- reconciler -->
<g id="node8" class="node">
<title>reconciler</title>
<path fill="#ffffff" stroke="#71449a" d="M1015,-169.75C1015,-169.75 857,-169.75 857,-169.75 851,-169.75 845,-163.75 845,-157.75 845,-157.75 845,-131.75 845,-131.75 845,-125.75 851,-119.75 857,-119.75 857,-119.75 1015,-119.75 1015,-119.75 1021,-119.75 1027,-125.75 1027,-131.75 1027,-131.75 1027,-157.75 1027,-157.75 1027,-163.75 1021,-169.75 1015,-169.75"/>
<text text-anchor="middle" x="936" y="-155.35" font-family="Helvetica,sans-Serif" font-size="13.00">Reconciler.reconcile()</text>
<text text-anchor="middle" x="936" y="-141.35" font-family="Helvetica,sans-Serif" font-size="13.00">reconciler.py</text>
<text text-anchor="middle" x="936" y="-127.35" font-family="Helvetica,sans-Serif" font-size="13.00">逐腿先确认撤单，再保护补偿</text>
</g>
<!-- executor&#45;&gt;reconciler -->
<g id="edge11" class="edge">
<title>executor&#45;&gt;reconciler</title>
<path fill="none" stroke="#666666" d="M944.31,-220.53C942.96,-208.43 941.31,-193.56 939.84,-180.29"/>
<polygon fill="#666666" stroke="#666666" points="943.28,-179.61 938.7,-170.06 936.33,-180.39 943.28,-179.61"/>
<text text-anchor="middle" x="980" y="-192.75" font-family="Helvetica,sans-Serif" font-size="10.00">PARTIAL_FILLED</text>
</g>
<!-- executor&#45;&gt;store -->
<g id="edge14" class="edge">
<title>executor&#45;&gt;store</title>
<path fill="none" stroke="#b3261e" stroke-width="2" d="M835.82,-239.33C755.09,-231.68 645.19,-213.37 558,-169.75 512.93,-147.21 471.38,-107.01 443.85,-76.44"/>
<polygon fill="#b3261e" stroke="#b3261e" stroke-width="2" points="446.41,-74.05 437.16,-68.89 441.17,-78.69 446.41,-74.05"/>
<text text-anchor="middle" x="618.5" y="-142.25" font-family="Helvetica,sans-Serif" font-size="10.00" fill="#b3261e">① 先落 Leg + OrderRow</text>
</g>
<!-- venue -->
<g id="node10" class="node">
<title>venue</title>
<path fill="#f5f5f5" stroke="#555555" d="M712,-54.42C712,-56.88 667.63,-58.88 613,-58.88 558.37,-58.88 514,-56.88 514,-54.42 514,-54.42 514,-14.33 514,-14.33 514,-11.87 558.37,-9.87 613,-9.87 667.63,-9.87 712,-11.87 712,-14.33 712,-14.33 712,-54.42 712,-54.42"/>
<path fill="none" stroke="#555555" d="M712,-54.42C712,-51.96 667.63,-49.97 613,-49.97 558.37,-49.97 514,-51.96 514,-54.42"/>
<text text-anchor="middle" x="613" y="-37.98" font-family="Helvetica,sans-Serif" font-size="13.00">venue</text>
<text text-anchor="middle" x="613" y="-23.98" font-family="Helvetica,sans-Serif" font-size="13.00">exchange/ · CCXTExchange</text>
</g>
<!-- executor&#45;&gt;venue -->
<g id="edge15" class="edge">
<title>executor&#45;&gt;venue</title>
<path fill="none" stroke="#b3261e" stroke-width="2" d="M868.47,-220.65C833.53,-208.15 792.75,-191 759,-169.75 712.97,-140.78 668.18,-96.43 640.61,-66.69"/>
<polygon fill="#b3261e" stroke="#b3261e" stroke-width="2" points="642.98,-64.1 633.65,-59.09 637.82,-68.83 642.98,-64.1"/>
<text text-anchor="middle" x="796" y="-142.25" font-family="Helvetica,sans-Serif" font-size="10.00" fill="#b3261e">② create_order</text>
</g>
<!-- done -->
<g id="node14" class="node">
<title>done</title>
<path fill="#e8f1ff" stroke="#3264a8" d="M1268,-162.75C1268,-162.75 1186,-162.75 1186,-162.75 1180,-162.75 1174,-156.75 1174,-150.75 1174,-150.75 1174,-138.75 1174,-138.75 1174,-132.75 1180,-126.75 1186,-126.75 1186,-126.75 1268,-126.75 1268,-126.75 1274,-126.75 1280,-132.75 1280,-138.75 1280,-138.75 1280,-150.75 1280,-150.75 1280,-156.75 1274,-162.75 1268,-162.75"/>
<text text-anchor="middle" x="1227" y="-148.35" font-family="Helvetica,sans-Serif" font-size="13.00">终态：全部成交</text>
<text text-anchor="middle" x="1227" y="-134.35" font-family="Helvetica,sans-Serif" font-size="13.00">ALL_FILLED</text>
</g>
<!-- executor&#45;&gt;done -->
<g id="edge10" class="edge">
<title>executor&#45;&gt;done</title>
<path fill="none" stroke="#666666" d="M1023.1,-220.7C1066.43,-206.62 1121.57,-188.06 1170,-169.75 1172.68,-168.74 1175.43,-167.67 1178.19,-166.58"/>
<polygon fill="#666666" stroke="#666666" points="1179.63,-169.77 1187.6,-162.79 1177.01,-163.28 1179.63,-169.77"/>
<text text-anchor="middle" x="1137" y="-192.75" font-family="Helvetica,sans-Serif" font-size="10.00">ALL_FILLED</text>
</g>
<!-- reconciler&#45;&gt;store -->
<g id="edge17" class="edge">
<title>reconciler&#45;&gt;store</title>
<path fill="none" stroke="#666666" stroke-dasharray="5,2" d="M844.81,-132.77C756.28,-120.99 618.58,-99.71 502,-68.75 500.06,-68.23 498.1,-67.7 496.14,-67.14"/>
<polygon fill="#666666" stroke="#666666" points="496.81,-63.69 486.23,-64.19 494.82,-70.4 496.81,-63.69"/>
<text text-anchor="middle" x="657" y="-91.75" font-family="Helvetica,sans-Serif" font-size="10.00">更新状态</text>
</g>
<!-- reconciler&#45;&gt;venue -->
<g id="edge16" class="edge">
<title>reconciler&#45;&gt;venue</title>
<path fill="none" stroke="#71449a" stroke-width="2" d="M864.32,-119.7C812.96,-102.47 743.85,-79.28 691.09,-61.58"/>
<polygon fill="#71449a" stroke="#71449a" stroke-width="2" points="692.04,-58.2 681.44,-58.34 689.81,-64.84 692.04,-58.2"/>
<text text-anchor="middle" x="822.5" y="-91.75" font-family="Helvetica,sans-Serif" font-size="10.00" fill="#71449a">反向单</text>
</g>
<!-- rolled -->
<g id="node15" class="node">
<title>rolled</title>
<path fill="#e8f1ff" stroke="#3264a8" d="M898.5,-52.38C898.5,-52.38 811.5,-52.38 811.5,-52.38 805.5,-52.38 799.5,-46.38 799.5,-40.38 799.5,-40.38 799.5,-28.37 799.5,-28.37 799.5,-22.38 805.5,-16.38 811.5,-16.38 811.5,-16.38 898.5,-16.38 898.5,-16.38 904.5,-16.38 910.5,-22.38 910.5,-28.38 910.5,-28.38 910.5,-40.38 910.5,-40.38 910.5,-46.38 904.5,-52.38 898.5,-52.38"/>
<text text-anchor="middle" x="855" y="-37.98" font-family="Helvetica,sans-Serif" font-size="13.00">终态：已补偿</text>
<text text-anchor="middle" x="855" y="-23.98" font-family="Helvetica,sans-Serif" font-size="13.00">ROLLED_BACK</text>
</g>
<!-- reconciler&#45;&gt;rolled -->
<g id="edge12" class="edge">
<title>reconciler&#45;&gt;rolled</title>
<path fill="none" stroke="#666666" d="M918.02,-119.7C904.97,-102.23 887.33,-78.63 874.03,-60.84"/>
<polygon fill="#666666" stroke="#666666" points="876.68,-58.54 867.89,-52.63 871.08,-62.73 876.68,-58.54"/>
<text text-anchor="middle" x="928" y="-91.75" font-family="Helvetica,sans-Serif" font-size="10.00">补偿成交</text>
</g>
<!-- failed -->
<g id="node16" class="node">
<title>failed</title>
<path fill="#fdecea" stroke="#b3261e" d="M1086,-59.38C1086,-59.38 948,-59.38 948,-59.38 942,-59.38 936,-53.38 936,-47.38 936,-47.38 936,-21.38 936,-21.38 936,-15.38 942,-9.38 948,-9.38 948,-9.38 1086,-9.38 1086,-9.38 1092,-9.38 1098,-15.38 1098,-21.38 1098,-21.38 1098,-47.38 1098,-47.38 1098,-53.38 1092,-59.38 1086,-59.38"/>
<text text-anchor="middle" x="1017" y="-44.98" font-family="Helvetica,sans-Serif" font-size="13.00">终态：补偿失败</text>
<text text-anchor="middle" x="1017" y="-30.98" font-family="Helvetica,sans-Serif" font-size="13.00">ROLLED_BACK_FAILED</text>
<text text-anchor="middle" x="1017" y="-16.98" font-family="Helvetica,sans-Serif" font-size="13.00">阻塞后续 Intent</text>
</g>
<!-- reconciler&#45;&gt;failed -->
<g id="edge13" class="edge">
<title>reconciler&#45;&gt;failed</title>
<path fill="none" stroke="#666666" d="M953.98,-119.7C965.33,-104.51 980.14,-84.69 992.55,-68.08"/>
<polygon fill="#666666" stroke="#666666" points="995.61,-69.84 998.79,-59.73 990,-65.65 995.61,-69.84"/>
<text text-anchor="middle" x="1002" y="-91.75" font-family="Helvetica,sans-Serif" font-size="10.00">补偿失败</text>
</g>
<!-- rej_plan&#45;&gt;store -->
<g id="edge19" class="edge">
<title>rej_plan&#45;&gt;store</title>
<path fill="none" stroke="#666666" stroke-dasharray="1,5" d="M637.79,-447.59C643.32,-444.86 649.21,-442.4 655,-440.75 688.63,-431.2 945.08,-446.24 969,-420.75 996.07,-391.9 995.38,-361.22 969,-331.75 952.9,-313.76 884.85,-323.56 861,-319.75 858.45,-319.34 772,-302.38 770,-300.75 734.51,-271.83 724.87,-138.89 688,-111.75 668.02,-97.04 601.11,-105.59 577,-99.75 547.29,-92.55 515.74,-81.37 488.16,-70.34"/>
<polygon fill="#666666" stroke="#666666" points="489.17,-66.97 478.58,-66.45 486.53,-73.46 489.17,-66.97"/>
</g>
<!-- rej_valid&#45;&gt;store -->
<g id="edge20" class="edge">
<title>rej_valid&#45;&gt;store</title>
<path fill="none" stroke="#666666" stroke-dasharray="1,5" d="M1038.16,-346.7C1028.11,-341.07 1016.37,-335.33 1005,-331.75 962.73,-318.43 949.56,-327.93 906,-319.75 886.61,-316.11 882.24,-313.09 863,-308.75 844.89,-304.67 836.86,-311.88 822,-300.75 746.25,-244.05 800.97,-166.78 724,-111.75 694.75,-90.84 679.36,-106.25 644,-99.75 580.47,-88.06 564.06,-86.69 502,-68.75 500.04,-68.18 498.06,-67.6 496.07,-66.99"/>
<polygon fill="#666666" stroke="#666666" points="496.64,-63.5 486.05,-63.85 494.54,-70.18 496.64,-63.5"/>
</g>
<!-- rej_risk&#45;&gt;store -->
<g id="edge21" class="edge">
<title>rej_risk&#45;&gt;store</title>
<path fill="none" stroke="#666666" stroke-dasharray="1,5" d="M634.52,-227.73C660.01,-200.91 701.34,-148.1 673,-111.75 624.82,-49.95 576.93,-91.7 502,-68.75 500.05,-68.15 498.08,-67.54 496.1,-66.91"/>
<polygon fill="#666666" stroke="#666666" points="496.7,-63.42 486.11,-63.66 494.53,-70.08 496.7,-63.42"/>
</g>
</g>
</svg>
