<?xml version="1.0" encoding="UTF-8" standalone="no"?>
<!DOCTYPE svg PUBLIC "-//W3C//DTD SVG 1.1//EN"
 "http://www.w3.org/Graphics/SVG/1.1/DTD/svg11.dtd">
<!-- Generated by graphviz version 2.43.0 (0)
 -->
<!-- Title: base_exchange_layer Pages: 1 -->
<svg width="1195pt" height="456pt"
 viewBox="0.00 0.00 1194.50 455.75" xmlns="http://www.w3.org/2000/svg" xmlns:xlink="http://www.w3.org/1999/xlink">
<g id="graph0" class="graph" transform="scale(1 1) rotate(0) translate(4 451.75)">
<title>base_exchange_layer</title>
<polygon fill="white" stroke="transparent" points="-4,4 -4,-451.75 1190.5,-451.75 1190.5,4 -4,4"/>
<text text-anchor="middle" x="593.25" y="-429.35" font-family="Helvetica,sans-Serif" font-size="18.00">交易所层 · src/exchange —— 唯一与 venue 通信的层</text>
<g id="clust1" class="cluster">
<title>cluster_consumers</title>
<polygon fill="#f5f5f5" stroke="#555555" stroke-dasharray="5,2" points="8,-337.75 8,-411.75 530,-411.75 530,-337.75 8,-337.75"/>
<text text-anchor="middle" x="269" y="-397.35" font-family="Helvetica,sans-Serif" font-size="13.00">消费方（上层）</text>
</g>
<g id="clust2" class="cluster">
<title>cluster_exchange</title>
<polygon fill="#f3eafd" stroke="#71449a" stroke-dasharray="5,2" points="255,-104.75 255,-304.75 1035,-304.75 1035,-104.75 255,-104.75"/>
<text text-anchor="middle" x="645" y="-290.35" font-family="Helvetica,sans-Serif" font-size="13.00">src/exchange/ —— 唯一与 venue 通信的层</text>
</g>
<!-- coord -->
<g id="node1" class="node">
<title>coord</title>
<path fill="#ffffff" stroke="#3c7a4a" d="M204,-381.75C204,-381.75 28,-381.75 28,-381.75 22,-381.75 16,-375.75 16,-369.75 16,-369.75 16,-357.75 16,-357.75 16,-351.75 22,-345.75 28,-345.75 28,-345.75 204,-345.75 204,-345.75 210,-345.75 216,-351.75 216,-357.75 216,-357.75 216,-369.75 216,-369.75 216,-375.75 210,-381.75 204,-381.75"/>
<text text-anchor="middle" x="116" y="-367.15" font-family="Helvetica,sans-Serif" font-size="12.00">coordinator/</text>
<text text-anchor="middle" x="116" y="-354.15" font-family="Helvetica,sans-Serif" font-size="12.00">Planner · Executor · Reconciler</text>
</g>
<!-- base -->
<g id="node4" class="node">
<title>base</title>
<path fill="#ffffff" stroke="#71449a" d="M545.5,-172.75C545.5,-172.75 312.5,-172.75 312.5,-172.75 306.5,-172.75 300.5,-166.75 300.5,-160.75 300.5,-160.75 300.5,-124.75 300.5,-124.75 300.5,-118.75 306.5,-112.75 312.5,-112.75 312.5,-112.75 545.5,-112.75 545.5,-112.75 551.5,-112.75 557.5,-118.75 557.5,-124.75 557.5,-124.75 557.5,-160.75 557.5,-160.75 557.5,-166.75 551.5,-172.75 545.5,-172.75"/>
<text text-anchor="middle" x="429" y="-159.15" font-family="Helvetica,sans-Serif" font-size="12.00">BaseExchange (ABC)</text>
<text text-anchor="middle" x="429" y="-146.15" font-family="Helvetica,sans-Serif" font-size="12.00">base.py</text>
<text text-anchor="middle" x="429" y="-133.15" font-family="Helvetica,sans-Serif" font-size="12.00">共享 aiohttp session · 余额缓存</text>
<text text-anchor="middle" x="429" y="-120.15" font-family="Helvetica,sans-Serif" font-size="12.00">list_markets / create_order / fetch_order</text>
</g>
<!-- coord&#45;&gt;base -->
<g id="edge6" class="edge">
<title>coord&#45;&gt;base</title>
<path fill="none" stroke="#666666" d="M115.42,-345.73C115.41,-317.38 119.63,-260.4 151,-227.75 187.44,-189.83 240.33,-168.87 290.22,-157.34"/>
<polygon fill="#666666" stroke="#666666" points="291.13,-160.72 300.15,-155.16 289.63,-153.88 291.13,-160.72"/>
</g>
<!-- qf -->
<g id="node2" class="node">
<title>qf</title>
<path fill="#ffffff" stroke="#3264a8" d="M393,-381.75C393,-381.75 253,-381.75 253,-381.75 247,-381.75 241,-375.75 241,-369.75 241,-369.75 241,-357.75 241,-357.75 241,-351.75 247,-345.75 253,-345.75 253,-345.75 393,-345.75 393,-345.75 399,-345.75 405,-351.75 405,-357.75 405,-357.75 405,-369.75 405,-369.75 405,-375.75 399,-381.75 393,-381.75"/>
<text text-anchor="middle" x="323" y="-367.15" font-family="Helvetica,sans-Serif" font-size="12.00">QuoteFetcher</text>
<text text-anchor="middle" x="323" y="-354.15" font-family="Helvetica,sans-Serif" font-size="12.00">market/quote_fetcher.py</text>
</g>
<!-- qf&#45;&gt;base -->
<g id="edge7" class="edge">
<title>qf&#45;&gt;base</title>
<path fill="none" stroke="#666666" stroke-dasharray="5,2" d="M258.86,-345.63C223.34,-334.71 184.3,-319.82 174,-304.75 154.68,-276.5 150.41,-252.55 174,-227.75 207.66,-192.36 579.34,-241.14 613,-205.75 624.2,-193.97 600.85,-182.27 567.4,-172.26"/>
<polygon fill="#666666" stroke="#666666" points="568.29,-168.87 557.71,-169.48 566.36,-175.6 568.29,-168.87"/>
<text text-anchor="middle" x="212.5" y="-254.25" font-family="Helvetica,sans-Serif" font-size="10.00">鸭子类型调用</text>
<text text-anchor="middle" x="212.5" y="-243.25" font-family="Helvetica,sans-Serif" font-size="10.00">不 import 类型</text>
</g>
<!-- boot -->
<g id="node3" class="node">
<title>boot</title>
<path fill="#ffffff" stroke="#6a1b9a" d="M510,-381.75C510,-381.75 442,-381.75 442,-381.75 436,-381.75 430,-375.75 430,-369.75 430,-369.75 430,-357.75 430,-357.75 430,-351.75 436,-345.75 442,-345.75 442,-345.75 510,-345.75 510,-345.75 516,-345.75 522,-351.75 522,-357.75 522,-357.75 522,-369.75 522,-369.75 522,-375.75 516,-381.75 510,-381.75"/>
<text text-anchor="middle" x="476" y="-367.15" font-family="Helvetica,sans-Serif" font-size="12.00">bootstrap.py</text>
<text text-anchor="middle" x="476" y="-354.15" font-family="Helvetica,sans-Serif" font-size="12.00">src/cli/</text>
</g>
<!-- fac -->
<g id="node6" class="node">
<title>fac</title>
<path fill="#ffffff" stroke="#71449a" d="M577.5,-269.25C577.5,-269.25 482.5,-269.25 482.5,-269.25 476.5,-269.25 470.5,-263.25 470.5,-257.25 470.5,-257.25 470.5,-245.25 470.5,-245.25 470.5,-239.25 476.5,-233.25 482.5,-233.25 482.5,-233.25 577.5,-233.25 577.5,-233.25 583.5,-233.25 589.5,-239.25 589.5,-245.25 589.5,-245.25 589.5,-257.25 589.5,-257.25 589.5,-263.25 583.5,-269.25 577.5,-269.25"/>
<text text-anchor="middle" x="530" y="-254.65" font-family="Helvetica,sans-Serif" font-size="12.00">ExchangeFactory</text>
<text text-anchor="middle" x="530" y="-241.65" font-family="Helvetica,sans-Serif" font-size="12.00">factory.py</text>
</g>
<!-- boot&#45;&gt;fac -->
<g id="edge1" class="edge">
<title>boot&#45;&gt;fac</title>
<path fill="none" stroke="#6a1b9a" stroke-width="2" d="M484.44,-345.48C493.2,-327.56 507,-299.31 517.12,-278.6"/>
<polygon fill="#6a1b9a" stroke="#6a1b9a" stroke-width="2" points="520.38,-279.92 521.62,-269.39 514.09,-276.84 520.38,-279.92"/>
<text text-anchor="middle" x="556.5" y="-315.75" font-family="Helvetica,sans-Serif" font-size="10.00" fill="#6a1b9a">ExchangeFactory.create</text>
</g>
<!-- market -->
<g id="node10" class="node">
<title>market</title>
<path fill="#e8f1ff" stroke="#3264a8" d="M538.5,-42.4C538.5,-44.73 489.42,-46.63 429,-46.63 368.58,-46.63 319.5,-44.73 319.5,-42.4 319.5,-42.4 319.5,-4.35 319.5,-4.35 319.5,-2.02 368.58,-0.12 429,-0.12 489.42,-0.12 538.5,-2.02 538.5,-4.35 538.5,-4.35 538.5,-42.4 538.5,-42.4"/>
<path fill="none" stroke="#3264a8" d="M538.5,-42.4C538.5,-40.07 489.42,-38.17 429,-38.17 368.58,-38.17 319.5,-40.07 319.5,-42.4"/>
<text text-anchor="middle" x="429" y="-26.77" font-family="Helvetica,sans-Serif" font-size="12.00">market/</text>
<text text-anchor="middle" x="429" y="-13.77" font-family="Helvetica,sans-Serif" font-size="12.00">Instrument · NetworkType · Quote</text>
</g>
<!-- base&#45;&gt;market -->
<g id="edge10" class="edge">
<title>base&#45;&gt;market</title>
<path fill="none" stroke="#3c7a4a" stroke-width="2" d="M429,-112.74C429,-95.87 429,-74.57 429,-57.1"/>
<polygon fill="#3c7a4a" stroke="#3c7a4a" stroke-width="2" points="432.5,-56.8 429,-46.8 425.5,-56.8 432.5,-56.8"/>
<text text-anchor="middle" x="507.5" y="-82.75" font-family="Helvetica,sans-Serif" font-size="10.00" fill="#3c7a4a">list_markets() 构造领域对象</text>
<text text-anchor="middle" x="507.5" y="-71.75" font-family="Helvetica,sans-Serif" font-size="10.00" fill="#3c7a4a">（端口&#45;适配器方向，合法）</text>
</g>
<!-- ccxt -->
<g id="node5" class="node">
<title>ccxt</title>
<path fill="#ffffff" stroke="#71449a" d="M775.5,-274.75C775.5,-274.75 626.5,-274.75 626.5,-274.75 620.5,-274.75 614.5,-268.75 614.5,-262.75 614.5,-262.75 614.5,-239.75 614.5,-239.75 614.5,-233.75 620.5,-227.75 626.5,-227.75 626.5,-227.75 775.5,-227.75 775.5,-227.75 781.5,-227.75 787.5,-233.75 787.5,-239.75 787.5,-239.75 787.5,-262.75 787.5,-262.75 787.5,-268.75 781.5,-274.75 775.5,-274.75"/>
<text text-anchor="middle" x="701" y="-261.15" font-family="Helvetica,sans-Serif" font-size="12.00">CCXTExchange</text>
<text text-anchor="middle" x="701" y="-248.15" font-family="Helvetica,sans-Serif" font-size="12.00">ccxt.py</text>
<text text-anchor="middle" x="701" y="-235.15" font-family="Helvetica,sans-Serif" font-size="12.00">Binance · Hyperliquid 分支</text>
</g>
<!-- ccxt&#45;&gt;base -->
<g id="edge3" class="edge">
<title>ccxt&#45;&gt;base</title>
<path fill="none" stroke="#666666" stroke-dasharray="5,2" d="M643.32,-227.66C605.33,-212.79 554.98,-193.08 512.63,-176.5"/>
<polygon fill="#666666" stroke="#666666" points="513.76,-173.18 503.17,-172.79 511.2,-179.7 513.76,-173.18"/>
<text text-anchor="middle" x="594" y="-197.75" font-family="Helvetica,sans-Serif" font-size="10.00">实现</text>
</g>
<!-- acc -->
<g id="node7" class="node">
<title>acc</title>
<path fill="#ffffff" stroke="#71449a" d="M771,-160.75C771,-160.75 631,-160.75 631,-160.75 625,-160.75 619,-154.75 619,-148.75 619,-148.75 619,-136.75 619,-136.75 619,-130.75 625,-124.75 631,-124.75 631,-124.75 771,-124.75 771,-124.75 777,-124.75 783,-130.75 783,-136.75 783,-136.75 783,-148.75 783,-148.75 783,-154.75 777,-160.75 771,-160.75"/>
<text text-anchor="middle" x="701" y="-146.15" font-family="Helvetica,sans-Serif" font-size="12.00">account_type.py</text>
<text text-anchor="middle" x="701" y="-133.15" font-family="Helvetica,sans-Serif" font-size="12.00">spot / swap 账户类型映射</text>
</g>
<!-- ccxt&#45;&gt;acc -->
<g id="edge5" class="edge">
<title>ccxt&#45;&gt;acc</title>
<path fill="none" stroke="#666666" d="M701,-227.66C701,-211.18 701,-188.75 701,-171.23"/>
<polygon fill="#666666" stroke="#666666" points="704.5,-171.05 701,-161.05 697.5,-171.05 704.5,-171.05"/>
</g>
<!-- venue -->
<g id="node11" class="node">
<title>venue</title>
<path fill="#f5f5f5" stroke="#555555" d="M1186.5,-161.77C1186.5,-164.11 1154.45,-166 1115,-166 1075.55,-166 1043.5,-164.11 1043.5,-161.77 1043.5,-161.77 1043.5,-123.73 1043.5,-123.73 1043.5,-121.39 1075.55,-119.5 1115,-119.5 1154.45,-119.5 1186.5,-121.39 1186.5,-123.73 1186.5,-123.73 1186.5,-161.77 1186.5,-161.77"/>
<path fill="none" stroke="#555555" d="M1186.5,-161.77C1186.5,-159.44 1154.45,-157.55 1115,-157.55 1075.55,-157.55 1043.5,-159.44 1043.5,-161.77"/>
<text text-anchor="middle" x="1115" y="-146.15" font-family="Helvetica,sans-Serif" font-size="12.00">venue API</text>
<text text-anchor="middle" x="1115" y="-133.15" font-family="Helvetica,sans-Serif" font-size="12.00">Binance · Hyperliquid</text>
</g>
<!-- ccxt&#45;&gt;venue -->
<g id="edge9" class="edge">
<title>ccxt&#45;&gt;venue</title>
<path fill="none" stroke="#666666" stroke-width="2" d="M787.56,-230.62C885.95,-208.29 1033.86,-174.63 1040,-172.75 1044.05,-171.51 1048.2,-170.16 1052.37,-168.73"/>
<polygon fill="#666666" stroke="#666666" stroke-width="2" points="1053.81,-171.94 1062.07,-165.3 1051.47,-165.34 1053.81,-171.94"/>
<text text-anchor="middle" x="956.5" y="-197.75" font-family="Helvetica,sans-Serif" font-size="10.00">REST</text>
</g>
<!-- fac&#45;&gt;base -->
<g id="edge2" class="edge">
<title>fac&#45;&gt;base</title>
<path fill="none" stroke="#666666" d="M513.77,-233.14C500.31,-218.94 480.68,-198.25 463.71,-180.35"/>
<polygon fill="#666666" stroke="#666666" points="466.04,-177.72 456.62,-172.87 460.96,-182.54 466.04,-177.72"/>
</g>
<!-- obc -->
<g id="node8" class="node">
<title>obc</title>
<path fill="#ffffff" stroke="#71449a" d="M1015,-274.75C1015,-274.75 825,-274.75 825,-274.75 819,-274.75 813,-268.75 813,-262.75 813,-262.75 813,-239.75 813,-239.75 813,-233.75 819,-227.75 825,-227.75 825,-227.75 1015,-227.75 1015,-227.75 1021,-227.75 1027,-233.75 1027,-239.75 1027,-239.75 1027,-262.75 1027,-262.75 1027,-268.75 1021,-274.75 1015,-274.75"/>
<text text-anchor="middle" x="920" y="-261.15" font-family="Helvetica,sans-Serif" font-size="12.00">OrderbookCache</text>
<text text-anchor="middle" x="920" y="-248.15" font-family="Helvetica,sans-Serif" font-size="12.00">orderbook_cache.py</text>
<text text-anchor="middle" x="920" y="-235.15" font-family="Helvetica,sans-Serif" font-size="12.00">自建 ccxt.pro 实例，只做 WS 行情</text>
</g>
<!-- obc&#45;&gt;venue -->
<g id="edge8" class="edge">
<title>obc&#45;&gt;venue</title>
<path fill="none" stroke="#666666" stroke-width="2" d="M961.35,-227.66C991.81,-211.03 1033.34,-188.35 1065.55,-170.76"/>
<polygon fill="#666666" stroke="#666666" stroke-width="2" points="1067.28,-173.8 1074.37,-165.94 1063.92,-167.66 1067.28,-173.8"/>
<text text-anchor="middle" x="1025" y="-197.75" font-family="Helvetica,sans-Serif" font-size="10.00">WS</text>
</g>
<!-- mock -->
<g id="node9" class="node">
<title>mock</title>
<path fill="#ffffff" stroke="#b3261e" d="M433,-274.75C433,-274.75 275,-274.75 275,-274.75 269,-274.75 263,-268.75 263,-262.75 263,-262.75 263,-239.75 263,-239.75 263,-233.75 269,-227.75 275,-227.75 275,-227.75 433,-227.75 433,-227.75 439,-227.75 445,-233.75 445,-239.75 445,-239.75 445,-262.75 445,-262.75 445,-268.75 439,-274.75 433,-274.75"/>
<text text-anchor="middle" x="354" y="-261.15" font-family="Helvetica,sans-Serif" font-size="12.00">MockExchange</text>
<text text-anchor="middle" x="354" y="-248.15" font-family="Helvetica,sans-Serif" font-size="12.00">mock.py</text>
<text text-anchor="middle" x="354" y="-235.15" font-family="Helvetica,sans-Serif" font-size="12.00">测试替身，生产代码不得导入</text>
</g>
<!-- mock&#45;&gt;base -->
<g id="edge4" class="edge">
<title>mock&#45;&gt;base</title>
<path fill="none" stroke="#b3261e" stroke-dasharray="5,2" d="M369.91,-227.66C379.41,-214.17 391.72,-196.68 402.65,-181.17"/>
<polygon fill="#b3261e" stroke="#b3261e" points="405.65,-182.98 408.55,-172.79 399.93,-178.95 405.65,-182.98"/>
<text text-anchor="middle" x="404" y="-197.75" font-family="Helvetica,sans-Serif" font-size="10.00">实现</text>
</g>
</g>
</svg>
