<?xml version="1.0" encoding="UTF-8" standalone="no"?>
<!DOCTYPE svg PUBLIC "-//W3C//DTD SVG 1.1//EN"
 "http://www.w3.org/Graphics/SVG/1.1/DTD/svg11.dtd">
<!-- Generated by graphviz version 2.43.0 (0)
 -->
<!-- Title: base_market_layer Pages: 1 -->
<svg width="1158pt" height="542pt"
 viewBox="0.00 0.00 1157.50 542.31" xmlns="http://www.w3.org/2000/svg" xmlns:xlink="http://www.w3.org/1999/xlink">
<g id="graph0" class="graph" transform="scale(1 1) rotate(0) translate(4 538.31)">
<title>base_market_layer</title>
<polygon fill="white" stroke="transparent" points="-4,4 -4,-538.31 1153.5,-538.31 1153.5,4 -4,4"/>
<text text-anchor="middle" x="574.75" y="-515.91" font-family="Helvetica,sans-Serif" font-size="18.00">市场层 · src/market —— 唯一知道 venue 原生 symbol 的层</text>
<g id="clust1" class="cluster">
<title>cluster_consumers</title>
<polygon fill="#f5f5f5" stroke="#555555" stroke-dasharray="5,2" points="190,-402.31 190,-498.31 529,-498.31 529,-402.31 190,-402.31"/>
<text text-anchor="middle" x="359.5" y="-483.91" font-family="Helvetica,sans-Serif" font-size="13.00">消费方（上层）</text>
</g>
<g id="clust2" class="cluster">
<title>cluster_market</title>
<polygon fill="#e8f1ff" stroke="#3264a8" stroke-dasharray="5,2" points="8,-8 8,-333 726,-333 726,-8 8,-8"/>
<text text-anchor="middle" x="367" y="-318.6" font-family="Helvetica,sans-Serif" font-size="13.00">src/market/ —— 领域对象，不导入 exchange</text>
</g>
<!-- planner -->
<g id="node1" class="node">
<title>planner</title>
<path fill="#ffffff" stroke="#3c7a4a" d="M338,-446.31C338,-446.31 210,-446.31 210,-446.31 204,-446.31 198,-440.31 198,-434.31 198,-434.31 198,-422.31 198,-422.31 198,-416.31 204,-410.31 210,-410.31 210,-410.31 338,-410.31 338,-410.31 344,-410.31 350,-416.31 350,-422.31 350,-422.31 350,-434.31 350,-434.31 350,-440.31 344,-446.31 338,-446.31"/>
<text text-anchor="middle" x="274" y="-431.71" font-family="Helvetica,sans-Serif" font-size="12.00">Planner</text>
<text text-anchor="middle" x="274" y="-418.71" font-family="Helvetica,sans-Serif" font-size="12.00">coordinator/planner.py</text>
</g>
<!-- registry -->
<g id="node3" class="node">
<title>registry</title>
<path fill="lightgrey" stroke="black" d="M365.5,-281C365.5,-281 182.5,-281 182.5,-281 176.5,-281 170.5,-275 170.5,-269 170.5,-269 170.5,-246 170.5,-246 170.5,-240 176.5,-234 182.5,-234 182.5,-234 365.5,-234 365.5,-234 371.5,-234 377.5,-240 377.5,-246 377.5,-246 377.5,-269 377.5,-269 377.5,-275 371.5,-281 365.5,-281"/>
<text text-anchor="middle" x="274" y="-267.4" font-family="Helvetica,sans-Serif" font-size="12.00">InstrumentRegistry</text>
<text text-anchor="middle" x="274" y="-254.4" font-family="Helvetica,sans-Serif" font-size="12.00">registry.py</text>
<text text-anchor="middle" x="274" y="-241.4" font-family="Helvetica,sans-Serif" font-size="12.00">缓存 · ttl_hours · load_all/refresh</text>
</g>
<!-- planner&#45;&gt;registry -->
<g id="edge1" class="edge">
<title>planner&#45;&gt;registry</title>
<path fill="none" stroke="#666666" d="M274,-410.2C274,-382.47 274,-327.25 274,-291.64"/>
<polygon fill="#666666" stroke="#666666" points="277.5,-291.27 274,-281.27 270.5,-291.27 277.5,-291.27"/>
</g>
<!-- fetcher -->
<g id="node5" class="node">
<title>fetcher</title>
<path fill="lightgrey" stroke="black" d="M133.5,-281C133.5,-281 28.5,-281 28.5,-281 22.5,-281 16.5,-275 16.5,-269 16.5,-269 16.5,-246 16.5,-246 16.5,-240 22.5,-234 28.5,-234 28.5,-234 133.5,-234 133.5,-234 139.5,-234 145.5,-240 145.5,-246 145.5,-246 145.5,-269 145.5,-269 145.5,-275 139.5,-281 133.5,-281"/>
<text text-anchor="middle" x="81" y="-267.4" font-family="Helvetica,sans-Serif" font-size="12.00">QuoteFetcher</text>
<text text-anchor="middle" x="81" y="-254.4" font-family="Helvetica,sans-Serif" font-size="12.00">quote_fetcher.py</text>
<text text-anchor="middle" x="81" y="-241.4" font-family="Helvetica,sans-Serif" font-size="12.00">fetch / fetch_many</text>
</g>
<!-- planner&#45;&gt;fetcher -->
<g id="edge2" class="edge">
<title>planner&#45;&gt;fetcher</title>
<path fill="none" stroke="#666666" d="M251.73,-410.13C228.02,-391.64 189.65,-361.08 158,-333 142.03,-318.83 124.91,-302.4 110.88,-288.57"/>
<polygon fill="#666666" stroke="#666666" points="112.99,-285.74 103.42,-281.19 108.07,-290.72 112.99,-285.74"/>
</g>
<!-- arb -->
<g id="node2" class="node">
<title>arb</title>
<path fill="#ffffff" stroke="#6a1b9a" d="M508.5,-446.31C508.5,-446.31 387.5,-446.31 387.5,-446.31 381.5,-446.31 375.5,-440.31 375.5,-434.31 375.5,-434.31 375.5,-422.31 375.5,-422.31 375.5,-416.31 381.5,-410.31 387.5,-410.31 387.5,-410.31 508.5,-410.31 508.5,-410.31 514.5,-410.31 520.5,-416.31 520.5,-422.31 520.5,-422.31 520.5,-434.31 520.5,-434.31 520.5,-440.31 514.5,-446.31 508.5,-446.31"/>
<text text-anchor="middle" x="448" y="-431.71" font-family="Helvetica,sans-Serif" font-size="12.00">funding_arb</text>
<text text-anchor="middle" x="448" y="-418.71" font-family="Helvetica,sans-Serif" font-size="12.00">strategy/funding_arb/</text>
</g>
<!-- matcher -->
<g id="node4" class="node">
<title>matcher</title>
<path fill="lightgrey" stroke="black" d="M529,-281C529,-281 415,-281 415,-281 409,-281 403,-275 403,-269 403,-269 403,-246 403,-246 403,-240 409,-234 415,-234 415,-234 529,-234 529,-234 535,-234 541,-240 541,-246 541,-246 541,-269 541,-269 541,-275 535,-281 529,-281"/>
<text text-anchor="middle" x="472" y="-267.4" font-family="Helvetica,sans-Serif" font-size="12.00">PairMatcher</text>
<text text-anchor="middle" x="472" y="-254.4" font-family="Helvetica,sans-Serif" font-size="12.00">pair_matcher.py</text>
<text text-anchor="middle" x="472" y="-241.4" font-family="Helvetica,sans-Serif" font-size="12.00">CrossVenuePair 配对</text>
</g>
<!-- arb&#45;&gt;matcher -->
<g id="edge3" class="edge">
<title>arb&#45;&gt;matcher</title>
<path fill="none" stroke="#666666" d="M450.43,-410.2C454.39,-382.35 462.29,-326.78 467.35,-291.18"/>
<polygon fill="#666666" stroke="#666666" points="470.82,-291.66 468.76,-281.27 463.89,-290.68 470.82,-291.66"/>
</g>
<!-- frcache -->
<g id="node6" class="node">
<title>frcache</title>
<path fill="lightgrey" stroke="black" d="M706,-275.5C706,-275.5 578,-275.5 578,-275.5 572,-275.5 566,-269.5 566,-263.5 566,-263.5 566,-251.5 566,-251.5 566,-245.5 572,-239.5 578,-239.5 578,-239.5 706,-239.5 706,-239.5 712,-239.5 718,-245.5 718,-251.5 718,-251.5 718,-263.5 718,-263.5 718,-269.5 712,-275.5 706,-275.5"/>
<text text-anchor="middle" x="642" y="-260.9" font-family="Helvetica,sans-Serif" font-size="12.00">FundingRateCache</text>
<text text-anchor="middle" x="642" y="-247.9" font-family="Helvetica,sans-Serif" font-size="12.00">funding_rate_cache.py</text>
</g>
<!-- arb&#45;&gt;frcache -->
<g id="edge4" class="edge">
<title>arb&#45;&gt;frcache</title>
<path fill="none" stroke="#666666" d="M452.47,-410.21C458.67,-390.12 471.95,-357.46 496,-341 517.47,-326.3 530.24,-343.61 554,-333 579.84,-321.47 603.97,-299.96 620.41,-283"/>
<polygon fill="#666666" stroke="#666666" points="623.08,-285.27 627.39,-275.59 617.99,-280.47 623.08,-285.27"/>
</g>
<!-- instr -->
<g id="node8" class="node">
<title>instr</title>
<path fill="lightgrey" stroke="black" d="M497,-168C497,-168 277,-168 277,-168 271,-168 265,-162 265,-156 265,-156 265,-120 265,-120 265,-114 271,-108 277,-108 277,-108 497,-108 497,-108 503,-108 509,-114 509,-120 509,-120 509,-156 509,-156 509,-162 503,-168 497,-168"/>
<text text-anchor="middle" x="387" y="-154.4" font-family="Helvetica,sans-Serif" font-size="12.00">Instrument</text>
<text text-anchor="middle" x="387" y="-141.4" font-family="Helvetica,sans-Serif" font-size="12.00">instrument.py</text>
<text text-anchor="middle" x="387" y="-128.4" font-family="Helvetica,sans-Serif" font-size="12.00">venue + market_type + base + quote</text>
<text text-anchor="middle" x="387" y="-115.4" font-family="Helvetica,sans-Serif" font-size="12.00">+ NetworkType</text>
</g>
<!-- registry&#45;&gt;instr -->
<g id="edge5" class="edge">
<title>registry&#45;&gt;instr</title>
<path fill="none" stroke="#666666" d="M295.79,-233.84C311.64,-217.36 333.45,-194.69 351.76,-175.64"/>
<polygon fill="#666666" stroke="#666666" points="354.44,-177.91 358.85,-168.27 349.4,-173.05 354.44,-177.91"/>
</g>
<!-- store -->
<g id="node12" class="node">
<title>store</title>
<path fill="#fff3df" stroke="#a66a14" d="M662,-447.34C662,-449.67 636,-451.56 604,-451.56 572,-451.56 546,-449.67 546,-447.34 546,-447.34 546,-409.29 546,-409.29 546,-406.96 572,-405.06 604,-405.06 636,-405.06 662,-406.96 662,-409.29 662,-409.29 662,-447.34 662,-447.34"/>
<path fill="none" stroke="#a66a14" d="M662,-447.34C662,-445 636,-443.11 604,-443.11 572,-443.11 546,-445 546,-447.34"/>
<text text-anchor="middle" x="604" y="-431.71" font-family="Helvetica,sans-Serif" font-size="12.00">PersistenceStore</text>
<text text-anchor="middle" x="604" y="-418.71" font-family="Helvetica,sans-Serif" font-size="12.00">persistence/</text>
</g>
<!-- registry&#45;&gt;store -->
<g id="edge13" class="edge">
<title>registry&#45;&gt;store</title>
<path fill="none" stroke="#666666" stroke-dasharray="5,2" d="M306.47,-281.09C329.51,-296.64 361.46,-317.26 391,-333 452.65,-365.86 471.19,-367.57 535,-396 539.28,-397.91 543.71,-399.89 548.15,-401.89"/>
<polygon fill="#666666" stroke="#666666" points="546.72,-405.08 557.27,-406 549.6,-398.7 546.72,-405.08"/>
<text text-anchor="middle" x="563" y="-360.5" font-family="Helvetica,sans-Serif" font-size="10.00">InstrumentRow ↔ Instrument</text>
<text text-anchor="middle" x="563" y="-349.5" font-family="Helvetica,sans-Serif" font-size="10.00">转换在本层，不在 persistence</text>
</g>
<!-- matcher&#45;&gt;instr -->
<g id="edge9" class="edge">
<title>matcher&#45;&gt;instr</title>
<path fill="none" stroke="#666666" d="M455.61,-233.84C443.84,-217.58 427.72,-195.29 414.06,-176.4"/>
<polygon fill="#666666" stroke="#666666" points="416.87,-174.32 408.18,-168.27 411.2,-178.43 416.87,-174.32"/>
</g>
<!-- fetcher&#45;&gt;instr -->
<g id="edge8" class="edge">
<title>fetcher&#45;&gt;instr</title>
<path fill="none" stroke="#666666" d="M139.64,-233.98C185.63,-216.32 250.28,-191.5 301.95,-171.66"/>
<polygon fill="#666666" stroke="#666666" points="303.36,-174.87 311.44,-168.01 300.85,-168.33 303.36,-174.87"/>
</g>
<!-- quote -->
<g id="node9" class="node">
<title>quote</title>
<path fill="lightgrey" stroke="black" d="M144,-156C144,-156 28,-156 28,-156 22,-156 16,-150 16,-144 16,-144 16,-132 16,-132 16,-126 22,-120 28,-120 28,-120 144,-120 144,-120 150,-120 156,-126 156,-132 156,-132 156,-144 156,-144 156,-150 150,-156 144,-156"/>
<text text-anchor="middle" x="86" y="-141.4" font-family="Helvetica,sans-Serif" font-size="12.00">Quote · EstimatedFill</text>
<text text-anchor="middle" x="86" y="-128.4" font-family="Helvetica,sans-Serif" font-size="12.00">quote.py</text>
</g>
<!-- fetcher&#45;&gt;quote -->
<g id="edge7" class="edge">
<title>fetcher&#45;&gt;quote</title>
<path fill="none" stroke="#666666" d="M81.96,-233.84C82.78,-214.63 83.96,-186.99 84.83,-166.51"/>
<polygon fill="#666666" stroke="#666666" points="88.34,-166.38 85.27,-156.24 81.34,-166.08 88.34,-166.38"/>
</g>
<!-- obcache -->
<g id="node10" class="node">
<title>obcache</title>
<path fill="#f3eafd" stroke="#71449a" d="M887,-454.6C887,-457.82 842.18,-460.44 787,-460.44 731.82,-460.44 687,-457.82 687,-454.6 687,-454.6 687,-402.03 687,-402.03 687,-398.8 731.82,-396.19 787,-396.19 842.18,-396.19 887,-398.8 887,-402.03 887,-402.03 887,-454.6 887,-454.6"/>
<path fill="none" stroke="#71449a" d="M887,-454.6C887,-451.37 842.18,-448.76 787,-448.76 731.82,-448.76 687,-451.37 687,-454.6"/>
<text text-anchor="middle" x="787" y="-438.21" font-family="Helvetica,sans-Serif" font-size="12.00">OrderbookCache</text>
<text text-anchor="middle" x="787" y="-425.21" font-family="Helvetica,sans-Serif" font-size="12.00">exchange/orderbook_cache.py</text>
<text text-anchor="middle" x="787" y="-412.21" font-family="Helvetica,sans-Serif" font-size="12.00">（WS 行情）</text>
</g>
<!-- fetcher&#45;&gt;obcache -->
<g id="edge12" class="edge">
<title>fetcher&#45;&gt;obcache</title>
<path fill="none" stroke="#666666" stroke-dasharray="5,2" d="M96.69,-281.11C110.51,-298.9 132.39,-322.4 158,-333 183.26,-343.46 623.8,-333.2 650,-341 683.29,-350.9 716.35,-371.35 741.65,-389.85"/>
<polygon fill="#666666" stroke="#666666" points="739.82,-392.86 749.93,-396.04 744.01,-387.25 739.82,-392.86"/>
</g>
<!-- exch -->
<g id="node11" class="node">
<title>exch</title>
<path fill="#f3eafd" stroke="#71449a" d="M1149.5,-276.52C1149.5,-278.86 1102.66,-280.75 1045,-280.75 987.34,-280.75 940.5,-278.86 940.5,-276.52 940.5,-276.52 940.5,-238.48 940.5,-238.48 940.5,-236.14 987.34,-234.25 1045,-234.25 1102.66,-234.25 1149.5,-236.14 1149.5,-238.48 1149.5,-238.48 1149.5,-276.52 1149.5,-276.52"/>
<path fill="none" stroke="#71449a" d="M1149.5,-276.52C1149.5,-274.19 1102.66,-272.3 1045,-272.3 987.34,-272.3 940.5,-274.19 940.5,-276.52"/>
<text text-anchor="middle" x="1045" y="-260.9" font-family="Helvetica,sans-Serif" font-size="12.00">exchange 适配器</text>
<text text-anchor="middle" x="1045" y="-247.9" font-family="Helvetica,sans-Serif" font-size="12.00">CCXTExchange · MockExchange</text>
</g>
<!-- fetcher&#45;&gt;exch -->
<g id="edge11" class="edge">
<title>fetcher&#45;&gt;exch</title>
<path fill="none" stroke="#b3261e" stroke-dasharray="5,2" d="M97.22,-281.05C111.04,-298.94 132.67,-322.23 158,-333 235.52,-365.96 835.74,-374.58 916,-349 953.77,-336.96 989.97,-309.4 1014.35,-287.65"/>
<polygon fill="#b3261e" stroke="#b3261e" points="1016.81,-290.15 1021.84,-280.82 1012.1,-284.98 1016.81,-290.15"/>
<text text-anchor="middle" x="818" y="-366" font-family="Helvetica,sans-Serif" font-size="10.00" fill="#b3261e">仅鸭子类型调用</text>
<text text-anchor="middle" x="818" y="-355" font-family="Helvetica,sans-Serif" font-size="10.00" fill="#b3261e">不 import 其类型</text>
<text text-anchor="middle" x="818" y="-344" font-family="Helvetica,sans-Serif" font-size="10.00" fill="#b3261e">（需要标注时在本层声明 Protocol）</text>
</g>
<!-- asset -->
<g id="node7" class="node">
<title>asset</title>
<path fill="lightgrey" stroke="black" d="M442.5,-63C442.5,-63 331.5,-63 331.5,-63 325.5,-63 319.5,-57 319.5,-51 319.5,-51 319.5,-28 319.5,-28 319.5,-22 325.5,-16 331.5,-16 331.5,-16 442.5,-16 442.5,-16 448.5,-16 454.5,-22 454.5,-28 454.5,-28 454.5,-51 454.5,-51 454.5,-57 448.5,-63 442.5,-63"/>
<text text-anchor="middle" x="387" y="-49.4" font-family="Helvetica,sans-Serif" font-size="12.00">Asset</text>
<text text-anchor="middle" x="387" y="-36.4" font-family="Helvetica,sans-Serif" font-size="12.00">asset.py</text>
<text text-anchor="middle" x="387" y="-23.4" font-family="Helvetica,sans-Serif" font-size="12.00">&#39;BTC&#39;，不绑定交易所</text>
</g>
<!-- instr&#45;&gt;asset -->
<g id="edge6" class="edge">
<title>instr&#45;&gt;asset</title>
<path fill="none" stroke="#666666" d="M387,-107.78C387,-96.94 387,-84.56 387,-73.41"/>
<polygon fill="#666666" stroke="#666666" points="390.5,-73.18 387,-63.18 383.5,-73.18 390.5,-73.18"/>
</g>
<!-- exch&#45;&gt;instr -->
<g id="edge10" class="edge">
<title>exch&#45;&gt;instr</title>
<path fill="none" stroke="#3c7a4a" stroke-width="2" d="M940.37,-237.82C826.16,-217.42 643.05,-184.72 519.03,-162.58"/>
<polygon fill="#3c7a4a" stroke="#3c7a4a" stroke-width="2" points="519.55,-159.11 509.09,-160.8 518.32,-166.01 519.55,-159.11"/>
<text text-anchor="middle" x="872.5" y="-204" font-family="Helvetica,sans-Serif" font-size="10.00" fill="#3c7a4a">list_markets() → Instrument</text>
<text text-anchor="middle" x="872.5" y="-193" font-family="Helvetica,sans-Serif" font-size="10.00" fill="#3c7a4a">（端口&#45;适配器方向，合法）</text>
</g>
</g>
</svg>
