<?xml version="1.0" encoding="UTF-8" standalone="no"?>
<!DOCTYPE svg PUBLIC "-//W3C//DTD SVG 1.1//EN"
 "http://www.w3.org/Graphics/SVG/1.1/DTD/svg11.dtd">
<!-- Generated by graphviz version 2.43.0 (0)
 -->
<!-- Title: strat_backtest Pages: 1 -->
<svg width="1774pt" height="387pt"
 viewBox="0.00 0.00 1774.00 387.00" xmlns="http://www.w3.org/2000/svg" xmlns:xlink="http://www.w3.org/1999/xlink">
<g id="graph0" class="graph" transform="scale(1 1) rotate(0) translate(4 383)">
<title>strat_backtest</title>
<polygon fill="white" stroke="transparent" points="-4,4 -4,-383 1770,-383 1770,4 -4,4"/>
<text text-anchor="middle" x="883" y="-360.6" font-family="Helvetica,sans-Serif" font-size="18.00">回测 · onefill backtest run —— 与实盘共用信号引擎与 K 线表</text>
<g id="clust1" class="cluster">
<title>cluster_bt</title>
<polygon fill="#eaf7ed" stroke="#3c7a4a" stroke-dasharray="5,2" points="580,-227 580,-325 1650,-325 1650,-227 580,-227"/>
<text text-anchor="middle" x="1115" y="-310.6" font-family="Helvetica,sans-Serif" font-size="13.00">src/strategy/backtest/</text>
</g>
<g id="clust2" class="cluster">
<title>cluster_shared</title>
<polygon fill="#f3eafd" stroke="#6a1b9a" stroke-dasharray="5,2" points="486,-8 486,-159 830,-159 830,-8 486,-8"/>
<text text-anchor="middle" x="658" y="-144.6" font-family="Helvetica,sans-Serif" font-size="13.00">与实盘共用的信号引擎 —— 这是回测结论有效的唯一前提</text>
</g>
<!-- wl -->
<g id="node1" class="node">
<title>wl</title>
<path fill="#fff3df" stroke="#a66a14" d="M347,-351C347,-351 228,-351 228,-351 222,-351 216,-345 216,-339 216,-339 216,-327 216,-327 216,-321 222,-315 228,-315 228,-315 347,-315 347,-315 353,-315 359,-321 359,-327 359,-327 359,-339 359,-339 359,-345 353,-351 347,-351"/>
<text text-anchor="middle" x="287.5" y="-336.4" font-family="Helvetica,sans-Serif" font-size="12.00">watchlist</text>
<text text-anchor="middle" x="287.5" y="-323.4" font-family="Helvetica,sans-Serif" font-size="12.00">config/watchlist.yaml</text>
</g>
<!-- data -->
<g id="node2" class="node">
<title>data</title>
<path fill="#ffffff" stroke="#3c7a4a" d="M715,-294.5C715,-294.5 600,-294.5 600,-294.5 594,-294.5 588,-288.5 588,-282.5 588,-282.5 588,-259.5 588,-259.5 588,-253.5 594,-247.5 600,-247.5 600,-247.5 715,-247.5 715,-247.5 721,-247.5 727,-253.5 727,-259.5 727,-259.5 727,-282.5 727,-282.5 727,-288.5 721,-294.5 715,-294.5"/>
<text text-anchor="middle" x="657.5" y="-280.9" font-family="Helvetica,sans-Serif" font-size="12.00">BacktestDataLoader</text>
<text text-anchor="middle" x="657.5" y="-267.9" font-family="Helvetica,sans-Serif" font-size="12.00">data.py</text>
<text text-anchor="middle" x="657.5" y="-254.9" font-family="Helvetica,sans-Serif" font-size="12.00">load(watchlist)</text>
</g>
<!-- wl&#45;&gt;data -->
<g id="edge1" class="edge">
<title>wl&#45;&gt;data</title>
<path fill="none" stroke="#666666" d="M359.02,-321.12C421.52,-310.59 512.68,-295.23 577.59,-284.29"/>
<polygon fill="#666666" stroke="#666666" points="578.5,-287.69 587.78,-282.58 577.33,-280.79 578.5,-287.69"/>
</g>
<!-- eng -->
<g id="node3" class="node">
<title>eng</title>
<path fill="#ffffff" stroke="#3c7a4a" d="M1109,-295C1109,-295 893,-295 893,-295 887,-295 881,-289 881,-283 881,-283 881,-247 881,-247 881,-241 887,-235 893,-235 893,-235 1109,-235 1109,-235 1115,-235 1121,-241 1121,-247 1121,-247 1121,-283 1121,-283 1121,-289 1115,-295 1109,-295"/>
<text text-anchor="middle" x="1001" y="-281.4" font-family="Helvetica,sans-Serif" font-size="12.00">BacktestEngine</text>
<text text-anchor="middle" x="1001" y="-268.4" font-family="Helvetica,sans-Serif" font-size="12.00">engine.py</text>
<text text-anchor="middle" x="1001" y="-255.4" font-family="Helvetica,sans-Serif" font-size="12.00">run_symbol / _build_contexts</text>
<text text-anchor="middle" x="1001" y="-242.4" font-family="Helvetica,sans-Serif" font-size="12.00">bar i 收盘出信号 → bar i+1 开盘价成交</text>
</g>
<!-- data&#45;&gt;eng -->
<g id="edge5" class="edge">
<title>data&#45;&gt;eng</title>
<path fill="none" stroke="#666666" d="M727.2,-269.79C768.38,-269.07 822.07,-268.13 870.92,-267.27"/>
<polygon fill="#666666" stroke="#666666" points="871,-270.77 880.94,-267.09 870.88,-263.77 871,-270.77"/>
</g>
<!-- pf -->
<g id="node4" class="node">
<title>pf</title>
<path fill="#ffffff" stroke="#3c7a4a" d="M1450,-288.5C1450,-288.5 1255,-288.5 1255,-288.5 1249,-288.5 1243,-282.5 1243,-276.5 1243,-276.5 1243,-253.5 1243,-253.5 1243,-247.5 1249,-241.5 1255,-241.5 1255,-241.5 1450,-241.5 1450,-241.5 1456,-241.5 1462,-247.5 1462,-253.5 1462,-253.5 1462,-276.5 1462,-276.5 1462,-282.5 1456,-288.5 1450,-288.5"/>
<text text-anchor="middle" x="1352.5" y="-274.9" font-family="Helvetica,sans-Serif" font-size="12.00">Portfolio</text>
<text text-anchor="middle" x="1352.5" y="-261.9" font-family="Helvetica,sans-Serif" font-size="12.00">portfolio.py</text>
<text text-anchor="middle" x="1352.5" y="-248.9" font-family="Helvetica,sans-Serif" font-size="12.00">PortfolioPosition · execute · equity</text>
</g>
<!-- eng&#45;&gt;pf -->
<g id="edge8" class="edge">
<title>eng&#45;&gt;pf</title>
<path fill="none" stroke="#666666" d="M1121.3,-265C1157.27,-265 1196.74,-265 1232.68,-265"/>
<polygon fill="#666666" stroke="#666666" points="1232.71,-268.5 1242.71,-265 1232.71,-261.5 1232.71,-268.5"/>
<text text-anchor="middle" x="1182" y="-268" font-family="Helvetica,sans-Serif" font-size="10.00">无未来函数</text>
</g>
<!-- db -->
<g id="node7" class="node">
<title>db</title>
<path fill="#fff3df" stroke="#a66a14" d="M353,-223.02C353,-225.36 323.64,-227.25 287.5,-227.25 251.36,-227.25 222,-225.36 222,-223.02 222,-223.02 222,-184.98 222,-184.98 222,-182.64 251.36,-180.75 287.5,-180.75 323.64,-180.75 353,-182.64 353,-184.98 353,-184.98 353,-223.02 353,-223.02"/>
<path fill="none" stroke="#a66a14" d="M353,-223.02C353,-220.69 323.64,-218.8 287.5,-218.8 251.36,-218.8 222,-220.69 222,-223.02"/>
<text text-anchor="middle" x="287.5" y="-207.4" font-family="Helvetica,sans-Serif" font-size="12.00">watch_candles</text>
<text text-anchor="middle" x="287.5" y="-194.4" font-family="Helvetica,sans-Serif" font-size="12.00">（与实盘同一张表）</text>
</g>
<!-- eng&#45;&gt;db -->
<g id="edge11" class="edge">
<title>eng&#45;&gt;db</title>
<path fill="none" stroke="#b3261e" stroke-dasharray="1,5" d="M922.92,-235C894.22,-225.3 861.06,-215.81 830,-211 678.92,-187.58 637.85,-193.17 486,-211 476.47,-212.12 474.53,-214.88 465,-216 431.01,-219.99 422.16,-218.05 388,-216 379.97,-215.52 371.6,-214.82 363.27,-214"/>
<polygon fill="#b3261e" stroke="#b3261e" points="363.47,-210.5 353.16,-212.94 362.74,-217.46 363.47,-210.5"/>
<text text-anchor="middle" x="657.5" y="-225" font-family="Helvetica,sans-Serif" font-size="10.00" fill="#b3261e">不写库</text>
<text text-anchor="middle" x="657.5" y="-214" font-family="Helvetica,sans-Serif" font-size="10.00" fill="#b3261e">（除 CandleService 的增量填充）</text>
</g>
<!-- met -->
<g id="node5" class="node">
<title>met</title>
<path fill="#ffffff" stroke="#3c7a4a" d="M1630,-283C1630,-283 1533,-283 1533,-283 1527,-283 1521,-277 1521,-271 1521,-271 1521,-259 1521,-259 1521,-253 1527,-247 1533,-247 1533,-247 1630,-247 1630,-247 1636,-247 1642,-253 1642,-259 1642,-259 1642,-271 1642,-271 1642,-277 1636,-283 1630,-283"/>
<text text-anchor="middle" x="1581.5" y="-268.4" font-family="Helvetica,sans-Serif" font-size="12.00">compute_metrics</text>
<text text-anchor="middle" x="1581.5" y="-255.4" font-family="Helvetica,sans-Serif" font-size="12.00">metrics.py</text>
</g>
<!-- pf&#45;&gt;met -->
<g id="edge9" class="edge">
<title>pf&#45;&gt;met</title>
<path fill="none" stroke="#666666" d="M1462.01,-265C1478.5,-265 1495.13,-265 1510.5,-265"/>
<polygon fill="#666666" stroke="#666666" points="1510.92,-268.5 1520.92,-265 1510.92,-261.5 1510.92,-268.5"/>
</g>
<!-- out -->
<g id="node10" class="node">
<title>out</title>
<path fill="#f5f5f5" stroke="#555555" d="M1754,-283C1754,-283 1713,-283 1713,-283 1707,-283 1701,-277 1701,-271 1701,-271 1701,-259 1701,-259 1701,-253 1707,-247 1713,-247 1713,-247 1754,-247 1754,-247 1760,-247 1766,-253 1766,-259 1766,-259 1766,-271 1766,-271 1766,-277 1760,-283 1754,-283"/>
<text text-anchor="middle" x="1733.5" y="-261.9" font-family="Helvetica,sans-Serif" font-size="12.00">CLI 输出</text>
</g>
<!-- met&#45;&gt;out -->
<g id="edge10" class="edge">
<title>met&#45;&gt;out</title>
<path fill="none" stroke="#666666" d="M1642.21,-265C1658.54,-265 1675.88,-265 1690.96,-265"/>
<polygon fill="#666666" stroke="#666666" points="1690.99,-268.5 1700.99,-265 1690.99,-261.5 1690.99,-268.5"/>
</g>
<!-- cand -->
<g id="node6" class="node">
<title>cand</title>
<path fill="#e8f1ff" stroke="#3264a8" d="M145,-260.5C145,-260.5 12,-260.5 12,-260.5 6,-260.5 0,-254.5 0,-248.5 0,-248.5 0,-225.5 0,-225.5 0,-219.5 6,-213.5 12,-213.5 12,-213.5 145,-213.5 145,-213.5 151,-213.5 157,-219.5 157,-225.5 157,-225.5 157,-248.5 157,-248.5 157,-254.5 151,-260.5 145,-260.5"/>
<text text-anchor="middle" x="78.5" y="-246.9" font-family="Helvetica,sans-Serif" font-size="12.00">CandleService</text>
<text text-anchor="middle" x="78.5" y="-233.9" font-family="Helvetica,sans-Serif" font-size="12.00">strategy/candles.py</text>
<text text-anchor="middle" x="78.5" y="-220.9" font-family="Helvetica,sans-Serif" font-size="12.00">（回测只是它的读取方）</text>
</g>
<!-- cand&#45;&gt;data -->
<g id="edge2" class="edge">
<title>cand&#45;&gt;data</title>
<path fill="none" stroke="#666666" d="M157.02,-241.57C267,-248.05 467.22,-259.85 577.82,-266.36"/>
<polygon fill="#666666" stroke="#666666" points="577.73,-269.86 587.92,-266.96 578.14,-262.88 577.73,-269.86"/>
</g>
<!-- cand&#45;&gt;db -->
<g id="edge3" class="edge">
<title>cand&#45;&gt;db</title>
<path fill="none" stroke="#666666" d="M157.17,-224.62C175.01,-221.77 193.94,-218.76 211.65,-215.93"/>
<polygon fill="#666666" stroke="#666666" points="212.6,-219.33 221.92,-214.29 211.5,-212.41 212.6,-219.33"/>
</g>
<!-- db&#45;&gt;data -->
<g id="edge4" class="edge">
<title>db&#45;&gt;data</title>
<path fill="none" stroke="#666666" stroke-dasharray="5,2" d="M353.02,-215.75C415.67,-227.15 510.86,-244.48 577.9,-256.69"/>
<polygon fill="#666666" stroke="#666666" points="577.52,-260.18 587.99,-258.53 578.78,-253.29 577.52,-260.18"/>
<text text-anchor="middle" x="426.5" y="-238" font-family="Helvetica,sans-Serif" font-size="10.00">读同一份历史</text>
</g>
<!-- algo -->
<g id="node8" class="node">
<title>algo</title>
<path fill="#ffffff" stroke="#6a1b9a" d="M755,-128.5C755,-128.5 560,-128.5 560,-128.5 554,-128.5 548,-122.5 548,-116.5 548,-116.5 548,-93.5 548,-93.5 548,-87.5 554,-81.5 560,-81.5 560,-81.5 755,-81.5 755,-81.5 761,-81.5 767,-87.5 767,-93.5 767,-93.5 767,-116.5 767,-116.5 767,-122.5 761,-128.5 755,-128.5"/>
<text text-anchor="middle" x="657.5" y="-114.9" font-family="Helvetica,sans-Serif" font-size="12.00">algos/pair_band.py</text>
<text text-anchor="middle" x="657.5" y="-101.9" font-family="Helvetica,sans-Serif" font-size="12.00">PairBandStrategy</text>
<text text-anchor="middle" x="657.5" y="-88.9" font-family="Helvetica,sans-Serif" font-size="12.00">（registry.get_strategy 按名取用）</text>
</g>
<!-- algo&#45;&gt;eng -->
<g id="edge6" class="edge">
<title>algo&#45;&gt;eng</title>
<path fill="none" stroke="#6a1b9a" stroke-width="2" d="M765.83,-128.52C794.55,-136.67 825.07,-147.09 852,-160 890.01,-178.22 928.71,-206.07 957.01,-228.52"/>
<polygon fill="#6a1b9a" stroke="#6a1b9a" stroke-width="2" points="955.08,-231.46 965.07,-234.99 959.46,-226 955.08,-231.46"/>
</g>
<!-- band -->
<g id="node9" class="node">
<title>band</title>
<path fill="#ffffff" stroke="#6a1b9a" d="M700,-52C700,-52 615,-52 615,-52 609,-52 603,-46 603,-40 603,-40 603,-28 603,-28 603,-22 609,-16 615,-16 615,-16 700,-16 700,-16 706,-16 712,-22 712,-28 712,-28 712,-40 712,-40 712,-46 706,-52 700,-52"/>
<text text-anchor="middle" x="657.5" y="-37.4" font-family="Helvetica,sans-Serif" font-size="12.00">signals/band.py</text>
<text text-anchor="middle" x="657.5" y="-24.4" font-family="Helvetica,sans-Serif" font-size="12.00">evaluate_band</text>
</g>
<!-- band&#45;&gt;eng -->
<g id="edge7" class="edge">
<title>band&#45;&gt;eng</title>
<path fill="none" stroke="#6a1b9a" stroke-width="2" d="M712.32,-35.28C747.82,-38.23 794.2,-46.23 830,-67 896.68,-105.69 949.82,-180.42 977.97,-226.19"/>
<polygon fill="#6a1b9a" stroke="#6a1b9a" stroke-width="2" points="975.09,-228.19 983.26,-234.94 981.08,-224.57 975.09,-228.19"/>
</g>
</g>
</svg>
